<?xml version="1.0" encoding="UTF-8"?><svg xmlns="http://www.w3.org/2000/svg" xmlns:xlink="http://www.w3.org/1999/xlink" fill-opacity="1" color-rendering="auto" color-interpolation="auto" text-rendering="auto" stroke="black" stroke-linecap="square" width="2135" stroke-miterlimit="10" shape-rendering="auto" stroke-opacity="1" fill="black" stroke-dasharray="none" font-weight="normal" stroke-width="1" height="817" font-family="'Dialog'" font-style="normal" stroke-linejoin="miter" font-size="12px" stroke-dashoffset="0" image-rendering="auto">
  <!--Generated by ySVG 2.5-->
  <defs id="genericDefs"/>
  <g>
    <defs id="defs1">
      <clipPath clipPathUnits="userSpaceOnUse" id="clipPath1">
        <path d="M0 0 L2135 0 L2135 817 L0 817 L0 0 Z"/>
      </clipPath>
      <clipPath clipPathUnits="userSpaceOnUse" id="clipPath2">
        <path d="M686 573 L2821 573 L2821 1390 L686 1390 L686 573 Z"/>
      </clipPath>
    </defs>
    <g fill="rgb(245,245,245)" text-rendering="geometricPrecision" shape-rendering="geometricPrecision" transform="matrix(1,0,0,1,-686,-573)" stroke="rgb(245,245,245)">
      <rect x="2064.48" y="588.1361" clip-path="url(#clipPath2)" width="741.4063" rx="4" ry="4" height="595.784" stroke="none"/>
    </g>
    <g fill="rgb(235,235,235)" text-rendering="geometricPrecision" shape-rendering="geometricPrecision" transform="matrix(1,0,0,1,-686,-573)" stroke="rgb(235,235,235)">
      <rect x="2064.48" width="741.4063" height="44" y="588.1361" clip-path="url(#clipPath2)" stroke="none"/>
    </g>
    <g font-size="40px" stroke-linecap="butt" transform="matrix(1,0,0,1,-686,-573)" text-rendering="geometricPrecision" font-family="sans-serif" shape-rendering="geometricPrecision" stroke-miterlimit="1.45">
      <text x="2574.9666" xml:space="preserve" y="619.296" clip-path="url(#clipPath2)" stroke="none">final memory</text>
      <line y2="630.136" fill="none" x1="2066.48" clip-path="url(#clipPath2)" x2="2803.8863" y1="630.136"/>
      <rect x="2064.48" y="588.1361" clip-path="url(#clipPath2)" fill="none" width="741.4063" stroke-dasharray="6,2" rx="4" ry="4" height="595.784"/>
    </g>
    <g fill="rgb(204,255,255)" text-rendering="geometricPrecision" shape-rendering="geometricPrecision" transform="matrix(1,0,0,1,-686,-573)" stroke="rgb(204,255,255)">
      <rect x="2090.592" width="59" height="50" y="862.072" clip-path="url(#clipPath2)" stroke="none"/>
    </g>
    <g text-rendering="geometricPrecision" stroke-miterlimit="1.45" shape-rendering="geometricPrecision" transform="matrix(1,0,0,1,-686,-573)" stroke-linecap="butt">
      <rect fill="none" x="2090.592" width="59" height="50" y="862.072" clip-path="url(#clipPath2)"/>
      <text x="2101.762" font-size="30px" y="893.942" clip-path="url(#clipPath2)" font-family="sans-serif" stroke="none" xml:space="preserve">list</text>
    </g>
    <g fill="silver" text-rendering="geometricPrecision" shape-rendering="geometricPrecision" transform="matrix(1,0,0,1,-686,-573)" stroke="silver">
      <rect x="2233.152" width="59" height="50" y="824.136" clip-path="url(#clipPath2)" stroke="none"/>
    </g>
    <g text-rendering="geometricPrecision" stroke-miterlimit="1.45" shape-rendering="geometricPrecision" transform="matrix(1,0,0,1,-686,-573)" stroke-linecap="butt">
      <rect fill="none" x="2233.152" width="59" height="50" y="824.136" clip-path="url(#clipPath2)"/>
    </g>
    <g fill="silver" text-rendering="geometricPrecision" shape-rendering="geometricPrecision" transform="matrix(1,0,0,1,-686,-573)" stroke="silver">
      <rect x="2292.152" width="59" height="50" y="824.136" clip-path="url(#clipPath2)" stroke="none"/>
    </g>
    <g text-rendering="geometricPrecision" stroke-miterlimit="1.45" shape-rendering="geometricPrecision" transform="matrix(1,0,0,1,-686,-573)" stroke-linecap="butt">
      <rect fill="none" x="2292.152" width="59" height="50" y="824.136" clip-path="url(#clipPath2)"/>
    </g>
    <g fill="rgb(204,255,255)" text-rendering="geometricPrecision" shape-rendering="geometricPrecision" transform="matrix(1,0,0,1,-686,-573)" stroke="rgb(204,255,255)">
      <rect x="2351.152" width="59" height="50" y="824.136" clip-path="url(#clipPath2)" stroke="none"/>
    </g>
    <g text-rendering="geometricPrecision" stroke-miterlimit="1.45" shape-rendering="geometricPrecision" transform="matrix(1,0,0,1,-686,-573)" stroke-linecap="butt">
      <rect fill="none" x="2351.152" width="59" height="50" y="824.136" clip-path="url(#clipPath2)"/>
      <text x="2372.312" font-size="30px" y="856.006" clip-path="url(#clipPath2)" font-family="sans-serif" stroke="none" xml:space="preserve">2</text>
    </g>
    <g fill="silver" text-rendering="geometricPrecision" shape-rendering="geometricPrecision" transform="matrix(1,0,0,1,-686,-573)" stroke="silver">
      <rect x="2410.152" width="59" height="50" y="824.136" clip-path="url(#clipPath2)" stroke="none"/>
    </g>
    <g text-rendering="geometricPrecision" stroke-miterlimit="1.45" shape-rendering="geometricPrecision" transform="matrix(1,0,0,1,-686,-573)" stroke-linecap="butt">
      <rect fill="none" x="2410.152" width="59" height="50" y="824.136" clip-path="url(#clipPath2)"/>
    </g>
    <g fill="silver" text-rendering="geometricPrecision" shape-rendering="geometricPrecision" transform="matrix(1,0,0,1,-686,-573)" stroke="silver">
      <rect x="2230.568" width="59" height="50" y="697.136" clip-path="url(#clipPath2)" stroke="none"/>
    </g>
    <g text-rendering="geometricPrecision" stroke-miterlimit="1.45" shape-rendering="geometricPrecision" transform="matrix(1,0,0,1,-686,-573)" stroke-linecap="butt">
      <rect fill="none" x="2230.568" width="59" height="50" y="697.136" clip-path="url(#clipPath2)"/>
    </g>
    <g fill="silver" text-rendering="geometricPrecision" shape-rendering="geometricPrecision" transform="matrix(1,0,0,1,-686,-573)" stroke="silver">
      <rect x="2289.568" width="59" height="50" y="697.136" clip-path="url(#clipPath2)" stroke="none"/>
    </g>
    <g text-rendering="geometricPrecision" stroke-miterlimit="1.45" shape-rendering="geometricPrecision" transform="matrix(1,0,0,1,-686,-573)" stroke-linecap="butt">
      <rect fill="none" x="2289.568" width="59" height="50" y="697.136" clip-path="url(#clipPath2)"/>
    </g>
    <g fill="rgb(204,255,255)" text-rendering="geometricPrecision" shape-rendering="geometricPrecision" transform="matrix(1,0,0,1,-686,-573)" stroke="rgb(204,255,255)">
      <rect x="2348.568" width="59" height="50" y="697.136" clip-path="url(#clipPath2)" stroke="none"/>
    </g>
    <g text-rendering="geometricPrecision" stroke-miterlimit="1.45" shape-rendering="geometricPrecision" transform="matrix(1,0,0,1,-686,-573)" stroke-linecap="butt">
      <rect fill="none" x="2348.568" width="59" height="50" y="697.136" clip-path="url(#clipPath2)"/>
    </g>
    <g fill="silver" text-rendering="geometricPrecision" shape-rendering="geometricPrecision" transform="matrix(1,0,0,1,-686,-573)" stroke="silver">
      <rect x="2407.568" width="59" height="50" y="697.136" clip-path="url(#clipPath2)" stroke="none"/>
    </g>
    <g text-rendering="geometricPrecision" stroke-miterlimit="1.45" shape-rendering="geometricPrecision" transform="matrix(1,0,0,1,-686,-573)" stroke-linecap="butt">
      <rect fill="none" x="2407.568" width="59" height="50" y="697.136" clip-path="url(#clipPath2)"/>
    </g>
    <g fill="silver" text-rendering="geometricPrecision" shape-rendering="geometricPrecision" transform="matrix(1,0,0,1,-686,-573)" stroke="silver">
      <rect x="2236.736" width="59" height="50" y="951.136" clip-path="url(#clipPath2)" stroke="none"/>
    </g>
    <g text-rendering="geometricPrecision" stroke-miterlimit="1.45" shape-rendering="geometricPrecision" transform="matrix(1,0,0,1,-686,-573)" stroke-linecap="butt">
      <rect fill="none" x="2236.736" width="59" height="50" y="951.136" clip-path="url(#clipPath2)"/>
    </g>
    <g fill="rgb(255,102,0)" text-rendering="geometricPrecision" shape-rendering="geometricPrecision" transform="matrix(1,0,0,1,-686,-573)" stroke="rgb(255,102,0)">
      <rect x="2295.736" width="59" height="50" y="951.136" clip-path="url(#clipPath2)" stroke="none"/>
    </g>
    <g text-rendering="geometricPrecision" stroke-miterlimit="1.45" shape-rendering="geometricPrecision" transform="matrix(1,0,0,1,-686,-573)" stroke-linecap="butt">
      <rect fill="none" x="2295.736" width="59" height="50" y="951.136" clip-path="url(#clipPath2)"/>
      <text x="2308.5559" font-size="30px" y="983.006" clip-path="url(#clipPath2)" font-family="sans-serif" stroke="none" xml:space="preserve">10</text>
    </g>
    <g fill="yellow" text-rendering="geometricPrecision" shape-rendering="geometricPrecision" transform="matrix(1,0,0,1,-686,-573)" stroke="yellow">
      <rect x="2413.736" width="59" height="50" y="951.136" clip-path="url(#clipPath2)" stroke="none"/>
    </g>
    <g text-rendering="geometricPrecision" stroke-miterlimit="1.45" shape-rendering="geometricPrecision" transform="matrix(1,0,0,1,-686,-573)" stroke-linecap="butt">
      <rect fill="none" x="2413.736" width="59" height="50" y="951.136" clip-path="url(#clipPath2)"/>
      <text x="2434.896" font-size="30px" y="983.006" clip-path="url(#clipPath2)" font-family="sans-serif" stroke="none" xml:space="preserve">0</text>
    </g>
    <g fill="silver" text-rendering="geometricPrecision" shape-rendering="geometricPrecision" transform="matrix(1,0,0,1,-686,-573)" stroke="silver">
      <rect x="2354.736" width="59" height="50" y="951.136" clip-path="url(#clipPath2)" stroke="none"/>
    </g>
    <g text-rendering="geometricPrecision" stroke-miterlimit="1.45" shape-rendering="geometricPrecision" transform="matrix(1,0,0,1,-686,-573)" stroke-linecap="butt">
      <rect fill="none" x="2354.736" width="59" height="50" y="951.136" clip-path="url(#clipPath2)"/>
    </g>
    <g fill="silver" text-rendering="geometricPrecision" shape-rendering="geometricPrecision" transform="matrix(1,0,0,1,-686,-573)" stroke="silver">
      <rect x="2236.736" width="59" height="50" y="1068.92" clip-path="url(#clipPath2)" stroke="none"/>
    </g>
    <g text-rendering="geometricPrecision" stroke-miterlimit="1.45" shape-rendering="geometricPrecision" transform="matrix(1,0,0,1,-686,-573)" stroke-linecap="butt">
      <rect fill="none" x="2236.736" width="59" height="50" y="1068.92" clip-path="url(#clipPath2)"/>
    </g>
    <g fill="rgb(255,102,0)" text-rendering="geometricPrecision" shape-rendering="geometricPrecision" transform="matrix(1,0,0,1,-686,-573)" stroke="rgb(255,102,0)">
      <rect x="2295.736" width="59" height="50" y="1068.92" clip-path="url(#clipPath2)" stroke="none"/>
    </g>
    <g text-rendering="geometricPrecision" stroke-miterlimit="1.45" shape-rendering="geometricPrecision" transform="matrix(1,0,0,1,-686,-573)" stroke-linecap="butt">
      <rect fill="none" x="2295.736" width="59" height="50" y="1068.92" clip-path="url(#clipPath2)"/>
      <text x="2316.896" font-size="30px" y="1100.79" clip-path="url(#clipPath2)" font-family="sans-serif" stroke="none" xml:space="preserve">0</text>
    </g>
    <g fill="yellow" text-rendering="geometricPrecision" shape-rendering="geometricPrecision" transform="matrix(1,0,0,1,-686,-573)" stroke="yellow">
      <rect x="2413.736" width="59" height="50" y="1068.92" clip-path="url(#clipPath2)" stroke="none"/>
    </g>
    <g text-rendering="geometricPrecision" stroke-miterlimit="1.45" shape-rendering="geometricPrecision" transform="matrix(1,0,0,1,-686,-573)" stroke-linecap="butt">
      <rect fill="none" x="2413.736" width="59" height="50" y="1068.92" clip-path="url(#clipPath2)"/>
      <text x="2426.5559" font-size="30px" y="1100.79" clip-path="url(#clipPath2)" font-family="sans-serif" stroke="none" xml:space="preserve">11</text>
    </g>
    <g fill="silver" text-rendering="geometricPrecision" shape-rendering="geometricPrecision" transform="matrix(1,0,0,1,-686,-573)" stroke="silver">
      <rect x="2354.736" width="59" height="50" y="1068.92" clip-path="url(#clipPath2)" stroke="none"/>
    </g>
    <g text-rendering="geometricPrecision" stroke-miterlimit="1.45" shape-rendering="geometricPrecision" transform="matrix(1,0,0,1,-686,-573)" stroke-linecap="butt">
      <rect fill="none" x="2354.736" width="59" height="50" y="1068.92" clip-path="url(#clipPath2)"/>
      <text x="2206.6172" font-size="30px" y="806.006" clip-path="url(#clipPath2)" font-family="sans-serif" stroke="none" xml:space="preserve">java/util/ArrayList.size</text>
      <text x="2148.2522" font-size="30px" y="679.006" clip-path="url(#clipPath2)" font-family="sans-serif" stroke="none" xml:space="preserve">java/util/ArrayList.elementData</text>
      <text x="2158.4963" font-size="30px" y="933.006" clip-path="url(#clipPath2)" font-family="sans-serif" stroke="none" xml:space="preserve">example/ListExample$Point.x</text>
      <text x="2157.4963" font-size="30px" y="1150.79" clip-path="url(#clipPath2)" font-family="sans-serif" stroke="none" xml:space="preserve">example/ListExample$Point.y</text>
    </g>
    <g fill="rgb(0,204,255)" text-rendering="geometricPrecision" shape-rendering="geometricPrecision" transform="matrix(1,0,0,1,-686,-573)" stroke="rgb(0,204,255)">
      <rect x="2550.896" width="59" height="50" y="747.136" clip-path="url(#clipPath2)" stroke="none"/>
    </g>
    <g text-rendering="geometricPrecision" stroke-miterlimit="1.45" shape-rendering="geometricPrecision" transform="matrix(1,0,0,1,-686,-573)" stroke-linecap="butt">
      <rect fill="none" x="2550.896" width="59" height="50" y="747.136" clip-path="url(#clipPath2)"/>
      <text x="2563.7161" font-size="30px" y="779.006" clip-path="url(#clipPath2)" font-family="sans-serif" stroke="none" xml:space="preserve">a1</text>
    </g>
    <g fill="silver" text-rendering="geometricPrecision" shape-rendering="geometricPrecision" transform="matrix(1,0,0,1,-686,-573)" stroke="silver">
      <rect x="2609.896" width="59" height="50" y="747.136" clip-path="url(#clipPath2)" stroke="none"/>
    </g>
    <g text-rendering="geometricPrecision" stroke-miterlimit="1.45" shape-rendering="geometricPrecision" transform="matrix(1,0,0,1,-686,-573)" stroke-linecap="butt">
      <rect fill="none" x="2609.896" width="59" height="50" y="747.136" clip-path="url(#clipPath2)"/>
    </g>
    <g fill="silver" text-rendering="geometricPrecision" shape-rendering="geometricPrecision" transform="matrix(1,0,0,1,-686,-573)" stroke="silver">
      <rect x="2668.896" width="59" height="50" y="747.136" clip-path="url(#clipPath2)" stroke="none"/>
    </g>
    <g text-rendering="geometricPrecision" stroke-miterlimit="1.45" shape-rendering="geometricPrecision" transform="matrix(1,0,0,1,-686,-573)" stroke-linecap="butt">
      <rect fill="none" x="2668.896" width="59" height="50" y="747.136" clip-path="url(#clipPath2)"/>
    </g>
    <g fill="silver" text-rendering="geometricPrecision" shape-rendering="geometricPrecision" transform="matrix(1,0,0,1,-686,-573)" stroke="silver">
      <rect x="2727.896" width="59" height="50" y="747.136" clip-path="url(#clipPath2)" stroke="none"/>
    </g>
    <g text-rendering="geometricPrecision" stroke-miterlimit="1.45" shape-rendering="geometricPrecision" transform="matrix(1,0,0,1,-686,-573)" stroke-linecap="butt">
      <rect fill="none" x="2727.896" width="59" height="50" y="747.136" clip-path="url(#clipPath2)"/>
      <text x="2627.7261" font-size="30px" y="729.006" clip-path="url(#clipPath2)" font-family="sans-serif" stroke="none" xml:space="preserve">arrays</text>
    </g>
    <g fill="rgb(0,204,255)" text-rendering="geometricPrecision" shape-rendering="geometricPrecision" transform="matrix(1,0,0,1,-686,-573)" stroke="rgb(0,204,255)">
      <rect x="2668.896" width="59" height="50" y="918.92" clip-path="url(#clipPath2)" stroke="none"/>
    </g>
    <g text-rendering="geometricPrecision" stroke-miterlimit="1.45" shape-rendering="geometricPrecision" transform="matrix(1,0,0,1,-686,-573)" stroke-linecap="butt">
      <rect fill="none" x="2668.896" width="59" height="50" y="918.92" clip-path="url(#clipPath2)"/>
      <text x="2681.7161" font-size="30px" y="950.79" clip-path="url(#clipPath2)" font-family="sans-serif" stroke="none" xml:space="preserve">a1</text>
    </g>
    <g fill="rgb(255,102,0)" text-rendering="geometricPrecision" shape-rendering="geometricPrecision" transform="matrix(1,0,0,1,-686,-573)" stroke="rgb(255,102,0)">
      <rect x="2668.896" width="59" height="50" y="968.92" clip-path="url(#clipPath2)" stroke="none"/>
    </g>
    <g text-rendering="geometricPrecision" stroke-miterlimit="1.45" shape-rendering="geometricPrecision" transform="matrix(1,0,0,1,-686,-573)" stroke-linecap="butt">
      <rect fill="none" x="2668.896" width="59" height="50" y="968.92" clip-path="url(#clipPath2)"/>
      <text x="2681.7161" font-size="30px" y="1000.79" clip-path="url(#clipPath2)" font-family="sans-serif" stroke="none" xml:space="preserve">p1</text>
    </g>
    <g fill="rgb(204,255,255)" text-rendering="geometricPrecision" shape-rendering="geometricPrecision" transform="matrix(1,0,0,1,-686,-573)" stroke="rgb(204,255,255)">
      <rect x="2668.896" width="59" height="50" y="1018.92" clip-path="url(#clipPath2)" stroke="none"/>
    </g>
    <g text-rendering="geometricPrecision" stroke-miterlimit="1.45" shape-rendering="geometricPrecision" transform="matrix(1,0,0,1,-686,-573)" stroke-linecap="butt">
      <rect fill="none" x="2668.896" width="59" height="50" y="1018.92" clip-path="url(#clipPath2)"/>
      <text x="2680.0659" font-size="30px" y="1050.79" clip-path="url(#clipPath2)" font-family="sans-serif" stroke="none" xml:space="preserve">list</text>
    </g>
    <g fill="yellow" text-rendering="geometricPrecision" shape-rendering="geometricPrecision" transform="matrix(1,0,0,1,-686,-573)" stroke="yellow">
      <rect x="2668.896" width="59" height="50" y="1068.92" clip-path="url(#clipPath2)" stroke="none"/>
    </g>
    <g text-rendering="geometricPrecision" stroke-miterlimit="1.45" shape-rendering="geometricPrecision" transform="matrix(1,0,0,1,-686,-573)" stroke-linecap="butt">
      <rect fill="none" x="2668.896" width="59" height="50" y="1068.92" clip-path="url(#clipPath2)"/>
      <text x="2681.7161" font-size="30px" y="1100.79" clip-path="url(#clipPath2)" font-family="sans-serif" stroke="none" xml:space="preserve">p2</text>
      <text x="2662.5461" font-size="30px" y="848.23" clip-path="url(#clipPath2)" font-family="sans-serif" stroke="none" xml:space="preserve">types</text>
    </g>
    <g fill="rgb(255,102,0)" text-rendering="geometricPrecision" shape-rendering="geometricPrecision" transform="matrix(1,0,0,1,-686,-573)" stroke="rgb(255,102,0)">
      <rect x="2550.896" width="59" height="50" y="877.224" clip-path="url(#clipPath2)" stroke="none"/>
    </g>
    <g text-rendering="geometricPrecision" stroke-miterlimit="1.45" shape-rendering="geometricPrecision" transform="matrix(1,0,0,1,-686,-573)" stroke-linecap="butt">
      <rect fill="none" x="2550.896" width="59" height="50" y="877.224" clip-path="url(#clipPath2)"/>
      <text x="2563.7161" font-size="30px" y="909.0941" clip-path="url(#clipPath2)" font-family="sans-serif" stroke="none" xml:space="preserve">p1</text>
    </g>
    <g fill="yellow" text-rendering="geometricPrecision" shape-rendering="geometricPrecision" transform="matrix(1,0,0,1,-686,-573)" stroke="yellow">
      <rect x="2550.896" width="59" height="50" y="927.224" clip-path="url(#clipPath2)" stroke="none"/>
    </g>
    <g text-rendering="geometricPrecision" stroke-miterlimit="1.45" shape-rendering="geometricPrecision" transform="matrix(1,0,0,1,-686,-573)" stroke-linecap="butt">
      <rect fill="none" x="2550.896" width="59" height="50" y="927.224" clip-path="url(#clipPath2)"/>
      <text x="2563.7161" font-size="30px" y="959.0941" clip-path="url(#clipPath2)" font-family="sans-serif" stroke="none" xml:space="preserve">p2</text>
    </g>
    <g fill="silver" text-rendering="geometricPrecision" shape-rendering="geometricPrecision" transform="matrix(1,0,0,1,-686,-573)" stroke="silver">
      <rect x="2668.896" width="59" height="50" y="868.92" clip-path="url(#clipPath2)" stroke="none"/>
    </g>
    <g text-rendering="geometricPrecision" stroke-miterlimit="1.45" shape-rendering="geometricPrecision" transform="matrix(1,0,0,1,-686,-573)" stroke-linecap="butt">
      <rect fill="none" x="2668.896" width="59" height="50" y="868.92" clip-path="url(#clipPath2)"/>
    </g>
    <g fill="silver" text-rendering="geometricPrecision" shape-rendering="geometricPrecision" transform="matrix(1,0,0,1,-686,-573)" stroke="silver">
      <rect x="2668.896" width="59" height="50" y="1118.92" clip-path="url(#clipPath2)" stroke="none"/>
    </g>
    <g text-rendering="geometricPrecision" stroke-miterlimit="1.45" shape-rendering="geometricPrecision" transform="matrix(1,0,0,1,-686,-573)" stroke-linecap="butt">
      <rect fill="none" x="2668.896" width="59" height="50" y="1118.92" clip-path="url(#clipPath2)"/>
      <path fill="none" d="M2149.592 887.072 L2361.0801 887.072 L2364.0859 881.2456" clip-path="url(#clipPath2)"/>
      <path d="M2367.7539 874.136 L2357.8083 882.5079 L2363.6274 882.1343 L2366.6953 887.0929 Z" clip-path="url(#clipPath2)" stroke="none"/>
      <path fill="none" d="M2149.592 887.072 L2169.592 887.072 L2169.592 768.288 L2362.104 768.288 L2366.8054 754.6965" clip-path="url(#clipPath2)"/>
      <path d="M2369.4204 747.136 L2360.7725 756.8424 L2366.4785 755.6416 L2370.2231 760.1111 Z" clip-path="url(#clipPath2)" stroke="none"/>
      <path fill="none" d="M2378.0681 747.136 L2378.0681 772.384 L2538.4121 772.384 L2542.8962 772.3575" clip-path="url(#clipPath2)"/>
      <path d="M2550.896 772.3103 L2538.8667 767.3812 L2541.8962 772.3635 L2538.9258 777.3811 Z" clip-path="url(#clipPath2)" stroke="none"/>
      <path fill="none" d="M2580.396 797.136 L2580.396 869.2241" clip-path="url(#clipPath2)"/>
      <path d="M2580.396 877.2241 L2585.396 865.2241 L2580.396 868.2241 L2575.396 865.2241 Z" clip-path="url(#clipPath2)" stroke="none"/>
      <path fill="none" d="M2550.896 902.2241 L2163.96 902.2241 L2163.96 1035.552 L2325.2361 1035.552 L2325.2361 1009.136" clip-path="url(#clipPath2)"/>
      <path d="M2325.2361 1001.136 L2320.2361 1013.136 L2325.2361 1010.136 L2330.2361 1013.136 Z" clip-path="url(#clipPath2)" stroke="none"/>
      <path fill="none" d="M2550.896 902.2241 L2163.96 902.2241 L2163.96 1036.576 L2325.2361 1036.576 L2325.2361 1060.92" clip-path="url(#clipPath2)"/>
      <path d="M2325.2361 1068.92 L2330.2361 1056.92 L2325.2361 1059.92 L2320.2361 1056.92 Z" clip-path="url(#clipPath2)" stroke="none"/>
      <path fill="none" d="M2550.896 952.2241 L2516.2161 952.2241 L2516.2161 1037.088 L2443.2361 1037.088 L2443.2361 1009.136" clip-path="url(#clipPath2)"/>
      <path d="M2443.2361 1001.136 L2438.2361 1013.136 L2443.2361 1010.136 L2448.2361 1013.136 Z" clip-path="url(#clipPath2)" stroke="none"/>
      <path fill="none" d="M2550.896 952.2241 L2516.2161 952.2241 L2516.2161 1037.088 L2443.2361 1037.088 L2443.2361 1060.92" clip-path="url(#clipPath2)"/>
      <path d="M2443.2361 1068.92 L2448.2361 1056.92 L2443.2361 1059.92 L2438.2361 1056.92 Z" clip-path="url(#clipPath2)" stroke="none"/>
    </g>
    <g fill="rgb(245,245,245)" text-rendering="geometricPrecision" shape-rendering="geometricPrecision" transform="matrix(1,0,0,1,-686,-573)" stroke="rgb(245,245,245)">
      <rect x="701.936" y="594.1801" clip-path="url(#clipPath2)" width="668.504" rx="4" ry="4" height="595.784" stroke="none"/>
      <rect x="701.936" y="594.1801" clip-path="url(#clipPath2)" fill="rgb(235,235,235)" width="668.504" height="44" stroke="none"/>
    </g>
    <g font-size="40px" stroke-linecap="butt" transform="matrix(1,0,0,1,-686,-573)" text-rendering="geometricPrecision" font-family="sans-serif" shape-rendering="geometricPrecision" stroke-miterlimit="1.45">
      <text x="1121.7603" xml:space="preserve" y="625.34" clip-path="url(#clipPath2)" stroke="none">initial memory</text>
      <line y2="636.18" fill="none" x1="703.936" clip-path="url(#clipPath2)" x2="1368.44" y1="636.18"/>
      <rect x="701.936" y="594.1801" clip-path="url(#clipPath2)" fill="none" width="668.504" stroke-dasharray="6,2" rx="4" ry="4" height="595.784"/>
    </g>
    <g fill="rgb(204,255,255)" text-rendering="geometricPrecision" shape-rendering="geometricPrecision" transform="matrix(1,0,0,1,-686,-573)" stroke="rgb(204,255,255)">
      <rect x="716.936" width="59" height="50" y="863.116" clip-path="url(#clipPath2)" stroke="none"/>
    </g>
    <g text-rendering="geometricPrecision" stroke-miterlimit="1.45" shape-rendering="geometricPrecision" transform="matrix(1,0,0,1,-686,-573)" stroke-linecap="butt">
      <rect fill="none" x="716.936" width="59" height="50" y="863.116" clip-path="url(#clipPath2)"/>
      <text x="728.106" font-size="30px" y="894.986" clip-path="url(#clipPath2)" font-family="sans-serif" stroke="none" xml:space="preserve">list</text>
    </g>
    <g fill="silver" text-rendering="geometricPrecision" shape-rendering="geometricPrecision" transform="matrix(1,0,0,1,-686,-573)" stroke="silver">
      <rect x="836.696" width="59" height="50" y="830.18" clip-path="url(#clipPath2)" stroke="none"/>
    </g>
    <g text-rendering="geometricPrecision" stroke-miterlimit="1.45" shape-rendering="geometricPrecision" transform="matrix(1,0,0,1,-686,-573)" stroke-linecap="butt">
      <rect fill="none" x="836.696" width="59" height="50" y="830.18" clip-path="url(#clipPath2)"/>
    </g>
    <g fill="silver" text-rendering="geometricPrecision" shape-rendering="geometricPrecision" transform="matrix(1,0,0,1,-686,-573)" stroke="silver">
      <rect x="895.696" width="59" height="50" y="830.18" clip-path="url(#clipPath2)" stroke="none"/>
    </g>
    <g text-rendering="geometricPrecision" stroke-miterlimit="1.45" shape-rendering="geometricPrecision" transform="matrix(1,0,0,1,-686,-573)" stroke-linecap="butt">
      <rect fill="none" x="895.696" width="59" height="50" y="830.18" clip-path="url(#clipPath2)"/>
    </g>
    <g fill="rgb(204,255,255)" text-rendering="geometricPrecision" shape-rendering="geometricPrecision" transform="matrix(1,0,0,1,-686,-573)" stroke="rgb(204,255,255)">
      <rect x="954.696" width="59" height="50" y="830.18" clip-path="url(#clipPath2)" stroke="none"/>
    </g>
    <g text-rendering="geometricPrecision" stroke-miterlimit="1.45" shape-rendering="geometricPrecision" transform="matrix(1,0,0,1,-686,-573)" stroke-linecap="butt">
      <rect fill="none" x="954.696" width="59" height="50" y="830.18" clip-path="url(#clipPath2)"/>
      <text x="975.856" font-size="30px" y="862.05" clip-path="url(#clipPath2)" font-family="sans-serif" stroke="none" xml:space="preserve">0</text>
    </g>
    <g fill="silver" text-rendering="geometricPrecision" shape-rendering="geometricPrecision" transform="matrix(1,0,0,1,-686,-573)" stroke="silver">
      <rect x="1013.696" width="59" height="50" y="830.18" clip-path="url(#clipPath2)" stroke="none"/>
    </g>
    <g text-rendering="geometricPrecision" stroke-miterlimit="1.45" shape-rendering="geometricPrecision" transform="matrix(1,0,0,1,-686,-573)" stroke-linecap="butt">
      <rect fill="none" x="1013.696" width="59" height="50" y="830.18" clip-path="url(#clipPath2)"/>
    </g>
    <g fill="silver" text-rendering="geometricPrecision" shape-rendering="geometricPrecision" transform="matrix(1,0,0,1,-686,-573)" stroke="silver">
      <rect x="834.112" width="59" height="50" y="703.18" clip-path="url(#clipPath2)" stroke="none"/>
    </g>
    <g text-rendering="geometricPrecision" stroke-miterlimit="1.45" shape-rendering="geometricPrecision" transform="matrix(1,0,0,1,-686,-573)" stroke-linecap="butt">
      <rect fill="none" x="834.112" width="59" height="50" y="703.18" clip-path="url(#clipPath2)"/>
    </g>
    <g fill="silver" text-rendering="geometricPrecision" shape-rendering="geometricPrecision" transform="matrix(1,0,0,1,-686,-573)" stroke="silver">
      <rect x="893.112" width="59" height="50" y="703.18" clip-path="url(#clipPath2)" stroke="none"/>
    </g>
    <g text-rendering="geometricPrecision" stroke-miterlimit="1.45" shape-rendering="geometricPrecision" transform="matrix(1,0,0,1,-686,-573)" stroke-linecap="butt">
      <rect fill="none" x="893.112" width="59" height="50" y="703.18" clip-path="url(#clipPath2)"/>
    </g>
    <g fill="rgb(204,255,255)" text-rendering="geometricPrecision" shape-rendering="geometricPrecision" transform="matrix(1,0,0,1,-686,-573)" stroke="rgb(204,255,255)">
      <rect x="952.112" width="59" height="50" y="703.18" clip-path="url(#clipPath2)" stroke="none"/>
    </g>
    <g text-rendering="geometricPrecision" stroke-miterlimit="1.45" shape-rendering="geometricPrecision" transform="matrix(1,0,0,1,-686,-573)" stroke-linecap="butt">
      <rect fill="none" x="952.112" width="59" height="50" y="703.18" clip-path="url(#clipPath2)"/>
      <text x="958.272" font-size="30px" y="735.05" clip-path="url(#clipPath2)" font-family="sans-serif" stroke="none" xml:space="preserve">null</text>
    </g>
    <g fill="silver" text-rendering="geometricPrecision" shape-rendering="geometricPrecision" transform="matrix(1,0,0,1,-686,-573)" stroke="silver">
      <rect x="1011.112" width="59" height="50" y="703.18" clip-path="url(#clipPath2)" stroke="none"/>
    </g>
    <g text-rendering="geometricPrecision" stroke-miterlimit="1.45" shape-rendering="geometricPrecision" transform="matrix(1,0,0,1,-686,-573)" stroke-linecap="butt">
      <rect fill="none" x="1011.112" width="59" height="50" y="703.18" clip-path="url(#clipPath2)"/>
    </g>
    <g fill="silver" text-rendering="geometricPrecision" shape-rendering="geometricPrecision" transform="matrix(1,0,0,1,-686,-573)" stroke="silver">
      <rect x="840.28" width="59" height="50" y="957.18" clip-path="url(#clipPath2)" stroke="none"/>
    </g>
    <g text-rendering="geometricPrecision" stroke-miterlimit="1.45" shape-rendering="geometricPrecision" transform="matrix(1,0,0,1,-686,-573)" stroke-linecap="butt">
      <rect fill="none" x="840.28" width="59" height="50" y="957.18" clip-path="url(#clipPath2)"/>
    </g>
    <g fill="silver" text-rendering="geometricPrecision" shape-rendering="geometricPrecision" transform="matrix(1,0,0,1,-686,-573)" stroke="silver">
      <rect x="899.28" width="59" height="50" y="957.18" clip-path="url(#clipPath2)" stroke="none"/>
    </g>
    <g text-rendering="geometricPrecision" stroke-miterlimit="1.45" shape-rendering="geometricPrecision" transform="matrix(1,0,0,1,-686,-573)" stroke-linecap="butt">
      <rect fill="none" x="899.28" width="59" height="50" y="957.18" clip-path="url(#clipPath2)"/>
    </g>
    <g fill="silver" text-rendering="geometricPrecision" shape-rendering="geometricPrecision" transform="matrix(1,0,0,1,-686,-573)" stroke="silver">
      <rect x="1017.28" width="59" height="50" y="957.18" clip-path="url(#clipPath2)" stroke="none"/>
    </g>
    <g text-rendering="geometricPrecision" stroke-miterlimit="1.45" shape-rendering="geometricPrecision" transform="matrix(1,0,0,1,-686,-573)" stroke-linecap="butt">
      <rect fill="none" x="1017.28" width="59" height="50" y="957.18" clip-path="url(#clipPath2)"/>
    </g>
    <g fill="silver" text-rendering="geometricPrecision" shape-rendering="geometricPrecision" transform="matrix(1,0,0,1,-686,-573)" stroke="silver">
      <rect x="958.28" width="59" height="50" y="957.18" clip-path="url(#clipPath2)" stroke="none"/>
    </g>
    <g text-rendering="geometricPrecision" stroke-miterlimit="1.45" shape-rendering="geometricPrecision" transform="matrix(1,0,0,1,-686,-573)" stroke-linecap="butt">
      <rect fill="none" x="958.28" width="59" height="50" y="957.18" clip-path="url(#clipPath2)"/>
    </g>
    <g fill="silver" text-rendering="geometricPrecision" shape-rendering="geometricPrecision" transform="matrix(1,0,0,1,-686,-573)" stroke="silver">
      <rect x="840.28" width="59" height="50" y="1074.964" clip-path="url(#clipPath2)" stroke="none"/>
    </g>
    <g text-rendering="geometricPrecision" stroke-miterlimit="1.45" shape-rendering="geometricPrecision" transform="matrix(1,0,0,1,-686,-573)" stroke-linecap="butt">
      <rect fill="none" x="840.28" width="59" height="50" y="1074.964" clip-path="url(#clipPath2)"/>
    </g>
    <g fill="silver" text-rendering="geometricPrecision" shape-rendering="geometricPrecision" transform="matrix(1,0,0,1,-686,-573)" stroke="silver">
      <rect x="899.28" width="59" height="50" y="1074.964" clip-path="url(#clipPath2)" stroke="none"/>
    </g>
    <g text-rendering="geometricPrecision" stroke-miterlimit="1.45" shape-rendering="geometricPrecision" transform="matrix(1,0,0,1,-686,-573)" stroke-linecap="butt">
      <rect fill="none" x="899.28" width="59" height="50" y="1074.964" clip-path="url(#clipPath2)"/>
    </g>
    <g fill="silver" text-rendering="geometricPrecision" shape-rendering="geometricPrecision" transform="matrix(1,0,0,1,-686,-573)" stroke="silver">
      <rect x="1017.28" width="59" height="50" y="1074.964" clip-path="url(#clipPath2)" stroke="none"/>
    </g>
    <g text-rendering="geometricPrecision" stroke-miterlimit="1.45" shape-rendering="geometricPrecision" transform="matrix(1,0,0,1,-686,-573)" stroke-linecap="butt">
      <rect fill="none" x="1017.28" width="59" height="50" y="1074.964" clip-path="url(#clipPath2)"/>
    </g>
    <g fill="silver" text-rendering="geometricPrecision" shape-rendering="geometricPrecision" transform="matrix(1,0,0,1,-686,-573)" stroke="silver">
      <rect x="958.28" width="59" height="50" y="1074.964" clip-path="url(#clipPath2)" stroke="none"/>
    </g>
    <g text-rendering="geometricPrecision" stroke-miterlimit="1.45" shape-rendering="geometricPrecision" transform="matrix(1,0,0,1,-686,-573)" stroke-linecap="butt">
      <rect fill="none" x="958.28" width="59" height="50" y="1074.964" clip-path="url(#clipPath2)"/>
      <text x="810.1611" font-size="30px" y="812.05" clip-path="url(#clipPath2)" font-family="sans-serif" stroke="none" xml:space="preserve">java/util/ArrayList.size</text>
      <text x="751.7962" font-size="30px" y="685.05" clip-path="url(#clipPath2)" font-family="sans-serif" stroke="none" xml:space="preserve">java/util/ArrayList.elementData</text>
      <text x="762.0402" font-size="30px" y="939.05" clip-path="url(#clipPath2)" font-family="sans-serif" stroke="none" xml:space="preserve">example/ListExample$Point.x</text>
      <text x="761.0402" font-size="30px" y="1156.834" clip-path="url(#clipPath2)" font-family="sans-serif" stroke="none" xml:space="preserve">example/ListExample$Point.y</text>
    </g>
    <g fill="silver" text-rendering="geometricPrecision" shape-rendering="geometricPrecision" transform="matrix(1,0,0,1,-686,-573)" stroke="silver">
      <rect x="1106.024" width="59" height="50" y="738.18" clip-path="url(#clipPath2)" stroke="none"/>
    </g>
    <g text-rendering="geometricPrecision" stroke-miterlimit="1.45" shape-rendering="geometricPrecision" transform="matrix(1,0,0,1,-686,-573)" stroke-linecap="butt">
      <rect fill="none" x="1106.024" width="59" height="50" y="738.18" clip-path="url(#clipPath2)"/>
    </g>
    <g fill="silver" text-rendering="geometricPrecision" shape-rendering="geometricPrecision" transform="matrix(1,0,0,1,-686,-573)" stroke="silver">
      <rect x="1165.024" width="59" height="50" y="738.18" clip-path="url(#clipPath2)" stroke="none"/>
    </g>
    <g text-rendering="geometricPrecision" stroke-miterlimit="1.45" shape-rendering="geometricPrecision" transform="matrix(1,0,0,1,-686,-573)" stroke-linecap="butt">
      <rect fill="none" x="1165.024" width="59" height="50" y="738.18" clip-path="url(#clipPath2)"/>
    </g>
    <g fill="silver" text-rendering="geometricPrecision" shape-rendering="geometricPrecision" transform="matrix(1,0,0,1,-686,-573)" stroke="silver">
      <rect x="1224.024" width="59" height="50" y="738.18" clip-path="url(#clipPath2)" stroke="none"/>
    </g>
    <g text-rendering="geometricPrecision" stroke-miterlimit="1.45" shape-rendering="geometricPrecision" transform="matrix(1,0,0,1,-686,-573)" stroke-linecap="butt">
      <rect fill="none" x="1224.024" width="59" height="50" y="738.18" clip-path="url(#clipPath2)"/>
    </g>
    <g fill="silver" text-rendering="geometricPrecision" shape-rendering="geometricPrecision" transform="matrix(1,0,0,1,-686,-573)" stroke="silver">
      <rect x="1283.024" width="59" height="50" y="738.18" clip-path="url(#clipPath2)" stroke="none"/>
    </g>
    <g text-rendering="geometricPrecision" stroke-miterlimit="1.45" shape-rendering="geometricPrecision" transform="matrix(1,0,0,1,-686,-573)" stroke-linecap="butt">
      <rect fill="none" x="1283.024" width="59" height="50" y="738.18" clip-path="url(#clipPath2)"/>
      <text x="1182.854" font-size="30px" y="720.05" clip-path="url(#clipPath2)" font-family="sans-serif" stroke="none" xml:space="preserve">arrays</text>
    </g>
    <g fill="silver" text-rendering="geometricPrecision" shape-rendering="geometricPrecision" transform="matrix(1,0,0,1,-686,-573)" stroke="silver">
      <rect x="1444.8" width="532" height="344" y="720.072" clip-path="url(#clipPath2)" stroke="none"/>
    </g>
    <g text-rendering="geometricPrecision" stroke-miterlimit="1.45" shape-rendering="geometricPrecision" transform="matrix(1,0,0,1,-686,-573)" stroke-linecap="butt">
      <rect fill="none" x="1444.8" width="532" height="344" y="720.072" clip-path="url(#clipPath2)"/>
      <text x="1459.6553" font-size="30px" y="748.9421" clip-path="url(#clipPath2)" font-family="sans-serif" stroke="none" xml:space="preserve">(</text>
      <text x="1459.6553" font-size="30px" y="778.9421" clip-path="url(#clipPath2)" font-family="sans-serif" stroke="none" xml:space="preserve">  @S %1 = *(this.size)</text>
      <text x="1459.6553" font-size="30px" y="808.9421" clip-path="url(#clipPath2)" font-family="sans-serif" stroke="none" xml:space="preserve">  @S %3 = %1 + 1</text>
      <text x="1459.6553" font-size="30px" y="838.9421" clip-path="url(#clipPath2)" font-family="sans-serif" stroke="none" xml:space="preserve">  @S this.ensureCapacityInternal(%3)</text>
      <text x="1459.6553" font-size="30px" y="868.9421" clip-path="url(#clipPath2)" font-family="sans-serif" stroke="none" xml:space="preserve">  @S %9 = *(this.elementData)</text>
      <text x="1459.6553" font-size="30px" y="898.942" clip-path="url(#clipPath2)" font-family="sans-serif" stroke="none" xml:space="preserve">  @S %10 = *(this.size)</text>
      <text x="1459.6553" font-size="30px" y="928.942" clip-path="url(#clipPath2)" font-family="sans-serif" stroke="none" xml:space="preserve">  @S %8 = %10 + 1</text>
      <text x="1459.6553" font-size="30px" y="958.942" clip-path="url(#clipPath2)" font-family="sans-serif" stroke="none" xml:space="preserve">  @S *(this.size) = %8</text>
      <text x="1459.6553" font-size="30px" y="988.942" clip-path="url(#clipPath2)" font-family="sans-serif" stroke="none" xml:space="preserve">  @S *(%9[%10]) = arg$0</text>
      <text x="1459.6553" font-size="30px" y="1018.9419" clip-path="url(#clipPath2)" font-family="sans-serif" stroke="none" xml:space="preserve">  @S &lt;retval&gt; = 1</text>
      <text x="1459.6553" font-size="30px" y="1048.9419" clip-path="url(#clipPath2)" font-family="sans-serif" stroke="none" xml:space="preserve">)</text>
      <text x="1595.1802" font-size="40px" y="704.232" clip-path="url(#clipPath2)" font-family="sans-serif" stroke="none" xml:space="preserve">method code</text>
      <text x="1597.2601" font-size="80px" y="1350.464" clip-path="url(#clipPath2)" font-family="sans-serif" stroke="none" xml:space="preserve">unsat</text>
      <path fill="none" d="M775.936 888.116 L970 888.116 L970.254 887.5267" clip-path="url(#clipPath2)"/>
      <path d="M973.4205 880.18 L964.0792 889.2209 L969.8582 888.445 L973.2625 893.179 Z" clip-path="url(#clipPath2)" stroke="none"/>
      <path fill="none" d="M775.936 888.116 L796 888.116 L796 772.136 L981.612 772.136 L981.612 761.18" clip-path="url(#clipPath2)"/>
      <path d="M981.612 753.18 L976.612 765.18 L981.612 762.18 L986.612 765.18 Z" clip-path="url(#clipPath2)" stroke="none"/>
      <path fill="none" d="M1342.024 893.0387 L1436.8 892.7903" clip-path="url(#clipPath2)"/>
      <path d="M1444.8 892.7693 L1432.787 887.8008 L1435.8 892.7929 L1432.8132 897.8008 Z" clip-path="url(#clipPath2)" stroke="none"/>
      <path fill="none" d="M1976.8 892.072 L2071.5759 892.072" clip-path="url(#clipPath2)"/>
      <path d="M2079.5759 892.072 L2067.5759 887.072 L2070.5759 892.072 L2067.5759 897.072 Z" clip-path="url(#clipPath2)" stroke="none"/>
    </g>
  </g>
</svg>
