<?xml version="1.0" encoding="UTF-8"?><svg xmlns="http://www.w3.org/2000/svg" xmlns:xlink="http://www.w3.org/1999/xlink" fill-opacity="1" color-rendering="auto" color-interpolation="auto" text-rendering="auto" stroke="black" stroke-linecap="square" width="1284" stroke-miterlimit="10" shape-rendering="auto" stroke-opacity="1" fill="black" stroke-dasharray="none" font-weight="normal" stroke-width="1" height="541" font-family="'Dialog'" font-style="normal" stroke-linejoin="miter" font-size="12px" stroke-dashoffset="0" image-rendering="auto">
  <!--Generated by ySVG 2.5-->
  <defs id="genericDefs"/>
  <g>
    <defs id="defs1">
      <clipPath clipPathUnits="userSpaceOnUse" id="clipPath1">
        <path d="M0 0 L1284 0 L1284 541 L0 541 L0 0 Z"/>
      </clipPath>
      <clipPath clipPathUnits="userSpaceOnUse" id="clipPath2">
        <path d="M873 507 L2157 507 L2157 1048 L873 1048 L873 507 Z"/>
      </clipPath>
    </defs>
    <g fill="rgb(204,255,255)" text-rendering="geometricPrecision" shape-rendering="geometricPrecision" transform="matrix(1,0,0,1,-873,-507)" stroke="rgb(204,255,255)">
      <rect x="888.04" width="59" height="50" y="737.72" clip-path="url(#clipPath2)" stroke="none"/>
    </g>
    <g text-rendering="geometricPrecision" stroke-miterlimit="1.45" shape-rendering="geometricPrecision" transform="matrix(1,0,0,1,-873,-507)" stroke-linecap="butt">
      <rect fill="none" x="888.04" width="59" height="50" y="737.72" clip-path="url(#clipPath2)"/>
      <text x="899.21" font-size="30px" y="769.59" clip-path="url(#clipPath2)" font-family="sans-serif" stroke="none" xml:space="preserve">list</text>
    </g>
    <g fill="silver" text-rendering="geometricPrecision" shape-rendering="geometricPrecision" transform="matrix(1,0,0,1,-873,-507)" stroke="silver">
      <rect x="1054.8" width="59" height="50" y="699.784" clip-path="url(#clipPath2)" stroke="none"/>
    </g>
    <g text-rendering="geometricPrecision" stroke-miterlimit="1.45" shape-rendering="geometricPrecision" transform="matrix(1,0,0,1,-873,-507)" stroke-linecap="butt">
      <rect fill="none" x="1054.8" width="59" height="50" y="699.784" clip-path="url(#clipPath2)"/>
    </g>
    <g fill="silver" text-rendering="geometricPrecision" shape-rendering="geometricPrecision" transform="matrix(1,0,0,1,-873,-507)" stroke="silver">
      <rect x="1113.8" width="59" height="50" y="699.784" clip-path="url(#clipPath2)" stroke="none"/>
    </g>
    <g text-rendering="geometricPrecision" stroke-miterlimit="1.45" shape-rendering="geometricPrecision" transform="matrix(1,0,0,1,-873,-507)" stroke-linecap="butt">
      <rect fill="none" x="1113.8" width="59" height="50" y="699.784" clip-path="url(#clipPath2)"/>
    </g>
    <g fill="rgb(204,255,255)" text-rendering="geometricPrecision" shape-rendering="geometricPrecision" transform="matrix(1,0,0,1,-873,-507)" stroke="rgb(204,255,255)">
      <rect x="1172.8" width="59" height="50" y="699.784" clip-path="url(#clipPath2)" stroke="none"/>
    </g>
    <g text-rendering="geometricPrecision" stroke-miterlimit="1.45" shape-rendering="geometricPrecision" transform="matrix(1,0,0,1,-873,-507)" stroke-linecap="butt">
      <rect fill="none" x="1172.8" width="59" height="50" y="699.784" clip-path="url(#clipPath2)"/>
      <text x="1193.96" font-size="30px" y="731.654" clip-path="url(#clipPath2)" font-family="sans-serif" stroke="none" xml:space="preserve">2</text>
    </g>
    <g fill="silver" text-rendering="geometricPrecision" shape-rendering="geometricPrecision" transform="matrix(1,0,0,1,-873,-507)" stroke="silver">
      <rect x="1231.8" width="59" height="50" y="699.784" clip-path="url(#clipPath2)" stroke="none"/>
    </g>
    <g text-rendering="geometricPrecision" stroke-miterlimit="1.45" shape-rendering="geometricPrecision" transform="matrix(1,0,0,1,-873,-507)" stroke-linecap="butt">
      <rect fill="none" x="1231.8" width="59" height="50" y="699.784" clip-path="url(#clipPath2)"/>
    </g>
    <g fill="silver" text-rendering="geometricPrecision" shape-rendering="geometricPrecision" transform="matrix(1,0,0,1,-873,-507)" stroke="silver">
      <rect x="1052.216" width="59" height="50" y="572.784" clip-path="url(#clipPath2)" stroke="none"/>
    </g>
    <g text-rendering="geometricPrecision" stroke-miterlimit="1.45" shape-rendering="geometricPrecision" transform="matrix(1,0,0,1,-873,-507)" stroke-linecap="butt">
      <rect fill="none" x="1052.216" width="59" height="50" y="572.784" clip-path="url(#clipPath2)"/>
    </g>
    <g fill="silver" text-rendering="geometricPrecision" shape-rendering="geometricPrecision" transform="matrix(1,0,0,1,-873,-507)" stroke="silver">
      <rect x="1111.216" width="59" height="50" y="572.784" clip-path="url(#clipPath2)" stroke="none"/>
    </g>
    <g text-rendering="geometricPrecision" stroke-miterlimit="1.45" shape-rendering="geometricPrecision" transform="matrix(1,0,0,1,-873,-507)" stroke-linecap="butt">
      <rect fill="none" x="1111.216" width="59" height="50" y="572.784" clip-path="url(#clipPath2)"/>
    </g>
    <g fill="rgb(204,255,255)" text-rendering="geometricPrecision" shape-rendering="geometricPrecision" transform="matrix(1,0,0,1,-873,-507)" stroke="rgb(204,255,255)">
      <rect x="1170.216" width="59" height="50" y="572.784" clip-path="url(#clipPath2)" stroke="none"/>
    </g>
    <g text-rendering="geometricPrecision" stroke-miterlimit="1.45" shape-rendering="geometricPrecision" transform="matrix(1,0,0,1,-873,-507)" stroke-linecap="butt">
      <rect fill="none" x="1170.216" width="59" height="50" y="572.784" clip-path="url(#clipPath2)"/>
    </g>
    <g fill="silver" text-rendering="geometricPrecision" shape-rendering="geometricPrecision" transform="matrix(1,0,0,1,-873,-507)" stroke="silver">
      <rect x="1229.216" width="59" height="50" y="572.784" clip-path="url(#clipPath2)" stroke="none"/>
    </g>
    <g text-rendering="geometricPrecision" stroke-miterlimit="1.45" shape-rendering="geometricPrecision" transform="matrix(1,0,0,1,-873,-507)" stroke-linecap="butt">
      <rect fill="none" x="1229.216" width="59" height="50" y="572.784" clip-path="url(#clipPath2)"/>
    </g>
    <g fill="silver" text-rendering="geometricPrecision" shape-rendering="geometricPrecision" transform="matrix(1,0,0,1,-873,-507)" stroke="silver">
      <rect x="1058.384" width="59" height="50" y="826.784" clip-path="url(#clipPath2)" stroke="none"/>
    </g>
    <g text-rendering="geometricPrecision" stroke-miterlimit="1.45" shape-rendering="geometricPrecision" transform="matrix(1,0,0,1,-873,-507)" stroke-linecap="butt">
      <rect fill="none" x="1058.384" width="59" height="50" y="826.784" clip-path="url(#clipPath2)"/>
    </g>
    <g fill="rgb(255,102,0)" text-rendering="geometricPrecision" shape-rendering="geometricPrecision" transform="matrix(1,0,0,1,-873,-507)" stroke="rgb(255,102,0)">
      <rect x="1117.384" width="59" height="50" y="826.784" clip-path="url(#clipPath2)" stroke="none"/>
    </g>
    <g text-rendering="geometricPrecision" stroke-miterlimit="1.45" shape-rendering="geometricPrecision" transform="matrix(1,0,0,1,-873,-507)" stroke-linecap="butt">
      <rect fill="none" x="1117.384" width="59" height="50" y="826.784" clip-path="url(#clipPath2)"/>
      <text x="1130.204" font-size="30px" y="858.654" clip-path="url(#clipPath2)" font-family="sans-serif" stroke="none" xml:space="preserve">10</text>
    </g>
    <g fill="yellow" text-rendering="geometricPrecision" shape-rendering="geometricPrecision" transform="matrix(1,0,0,1,-873,-507)" stroke="yellow">
      <rect x="1235.384" width="59" height="50" y="826.784" clip-path="url(#clipPath2)" stroke="none"/>
    </g>
    <g text-rendering="geometricPrecision" stroke-miterlimit="1.45" shape-rendering="geometricPrecision" transform="matrix(1,0,0,1,-873,-507)" stroke-linecap="butt">
      <rect fill="none" x="1235.384" width="59" height="50" y="826.784" clip-path="url(#clipPath2)"/>
      <text x="1256.5441" font-size="30px" y="858.654" clip-path="url(#clipPath2)" font-family="sans-serif" stroke="none" xml:space="preserve">0</text>
    </g>
    <g fill="silver" text-rendering="geometricPrecision" shape-rendering="geometricPrecision" transform="matrix(1,0,0,1,-873,-507)" stroke="silver">
      <rect x="1176.384" width="59" height="50" y="826.784" clip-path="url(#clipPath2)" stroke="none"/>
    </g>
    <g text-rendering="geometricPrecision" stroke-miterlimit="1.45" shape-rendering="geometricPrecision" transform="matrix(1,0,0,1,-873,-507)" stroke-linecap="butt">
      <rect fill="none" x="1176.384" width="59" height="50" y="826.784" clip-path="url(#clipPath2)"/>
    </g>
    <g fill="silver" text-rendering="geometricPrecision" shape-rendering="geometricPrecision" transform="matrix(1,0,0,1,-873,-507)" stroke="silver">
      <rect x="1058.384" width="59" height="50" y="932.736" clip-path="url(#clipPath2)" stroke="none"/>
    </g>
    <g text-rendering="geometricPrecision" stroke-miterlimit="1.45" shape-rendering="geometricPrecision" transform="matrix(1,0,0,1,-873,-507)" stroke-linecap="butt">
      <rect fill="none" x="1058.384" width="59" height="50" y="932.736" clip-path="url(#clipPath2)"/>
    </g>
    <g fill="rgb(255,102,0)" text-rendering="geometricPrecision" shape-rendering="geometricPrecision" transform="matrix(1,0,0,1,-873,-507)" stroke="rgb(255,102,0)">
      <rect x="1117.384" width="59" height="50" y="932.736" clip-path="url(#clipPath2)" stroke="none"/>
    </g>
    <g text-rendering="geometricPrecision" stroke-miterlimit="1.45" shape-rendering="geometricPrecision" transform="matrix(1,0,0,1,-873,-507)" stroke-linecap="butt">
      <rect fill="none" x="1117.384" width="59" height="50" y="932.736" clip-path="url(#clipPath2)"/>
      <text x="1138.5441" font-size="30px" y="964.606" clip-path="url(#clipPath2)" font-family="sans-serif" stroke="none" xml:space="preserve">0</text>
    </g>
    <g fill="yellow" text-rendering="geometricPrecision" shape-rendering="geometricPrecision" transform="matrix(1,0,0,1,-873,-507)" stroke="yellow">
      <rect x="1235.384" width="59" height="50" y="932.736" clip-path="url(#clipPath2)" stroke="none"/>
    </g>
    <g text-rendering="geometricPrecision" stroke-miterlimit="1.45" shape-rendering="geometricPrecision" transform="matrix(1,0,0,1,-873,-507)" stroke-linecap="butt">
      <rect fill="none" x="1235.384" width="59" height="50" y="932.736" clip-path="url(#clipPath2)"/>
      <text x="1248.204" font-size="30px" y="964.606" clip-path="url(#clipPath2)" font-family="sans-serif" stroke="none" xml:space="preserve">11</text>
    </g>
    <g fill="silver" text-rendering="geometricPrecision" shape-rendering="geometricPrecision" transform="matrix(1,0,0,1,-873,-507)" stroke="silver">
      <rect x="1176.384" width="59" height="50" y="932.736" clip-path="url(#clipPath2)" stroke="none"/>
    </g>
    <g text-rendering="geometricPrecision" stroke-miterlimit="1.45" shape-rendering="geometricPrecision" transform="matrix(1,0,0,1,-873,-507)" stroke-linecap="butt">
      <rect fill="none" x="1176.384" width="59" height="50" y="932.736" clip-path="url(#clipPath2)"/>
      <text x="1028.2651" font-size="30px" y="681.654" clip-path="url(#clipPath2)" font-family="sans-serif" stroke="none" xml:space="preserve">java/util/ArrayList.size</text>
      <text x="969.9002" font-size="30px" y="554.654" clip-path="url(#clipPath2)" font-family="sans-serif" stroke="none" xml:space="preserve">java/util/ArrayList.elementData</text>
      <text x="980.1442" font-size="30px" y="808.654" clip-path="url(#clipPath2)" font-family="sans-serif" stroke="none" xml:space="preserve">example/ListExample$Point.x</text>
      <text x="979.1442" font-size="30px" y="1014.606" clip-path="url(#clipPath2)" font-family="sans-serif" stroke="none" xml:space="preserve">example/ListExample$Point.y</text>
    </g>
    <g fill="rgb(0,204,255)" text-rendering="geometricPrecision" shape-rendering="geometricPrecision" transform="matrix(1,0,0,1,-873,-507)" stroke="rgb(0,204,255)">
      <rect x="1372.544" width="59" height="50" y="622.784" clip-path="url(#clipPath2)" stroke="none"/>
    </g>
    <g text-rendering="geometricPrecision" stroke-miterlimit="1.45" shape-rendering="geometricPrecision" transform="matrix(1,0,0,1,-873,-507)" stroke-linecap="butt">
      <rect fill="none" x="1372.544" width="59" height="50" y="622.784" clip-path="url(#clipPath2)"/>
      <text x="1385.364" font-size="30px" y="654.654" clip-path="url(#clipPath2)" font-family="sans-serif" stroke="none" xml:space="preserve">a1</text>
    </g>
    <g fill="silver" text-rendering="geometricPrecision" shape-rendering="geometricPrecision" transform="matrix(1,0,0,1,-873,-507)" stroke="silver">
      <rect x="1431.544" width="59" height="50" y="622.784" clip-path="url(#clipPath2)" stroke="none"/>
    </g>
    <g text-rendering="geometricPrecision" stroke-miterlimit="1.45" shape-rendering="geometricPrecision" transform="matrix(1,0,0,1,-873,-507)" stroke-linecap="butt">
      <rect fill="none" x="1431.544" width="59" height="50" y="622.784" clip-path="url(#clipPath2)"/>
    </g>
    <g fill="silver" text-rendering="geometricPrecision" shape-rendering="geometricPrecision" transform="matrix(1,0,0,1,-873,-507)" stroke="silver">
      <rect x="1490.544" width="59" height="50" y="622.784" clip-path="url(#clipPath2)" stroke="none"/>
    </g>
    <g text-rendering="geometricPrecision" stroke-miterlimit="1.45" shape-rendering="geometricPrecision" transform="matrix(1,0,0,1,-873,-507)" stroke-linecap="butt">
      <rect fill="none" x="1490.544" width="59" height="50" y="622.784" clip-path="url(#clipPath2)"/>
    </g>
    <g fill="silver" text-rendering="geometricPrecision" shape-rendering="geometricPrecision" transform="matrix(1,0,0,1,-873,-507)" stroke="silver">
      <rect x="1549.544" width="59" height="50" y="622.784" clip-path="url(#clipPath2)" stroke="none"/>
    </g>
    <g text-rendering="geometricPrecision" stroke-miterlimit="1.45" shape-rendering="geometricPrecision" transform="matrix(1,0,0,1,-873,-507)" stroke-linecap="butt">
      <rect fill="none" x="1549.544" width="59" height="50" y="622.784" clip-path="url(#clipPath2)"/>
      <text x="1449.374" font-size="30px" y="604.654" clip-path="url(#clipPath2)" font-family="sans-serif" stroke="none" xml:space="preserve">arrays</text>
    </g>
    <g fill="rgb(0,204,255)" text-rendering="geometricPrecision" shape-rendering="geometricPrecision" transform="matrix(1,0,0,1,-873,-507)" stroke="rgb(0,204,255)">
      <rect x="1490.544" width="59" height="50" y="761.232" clip-path="url(#clipPath2)" stroke="none"/>
    </g>
    <g text-rendering="geometricPrecision" stroke-miterlimit="1.45" shape-rendering="geometricPrecision" transform="matrix(1,0,0,1,-873,-507)" stroke-linecap="butt">
      <rect fill="none" x="1490.544" width="59" height="50" y="761.232" clip-path="url(#clipPath2)"/>
      <text x="1503.364" font-size="30px" y="793.102" clip-path="url(#clipPath2)" font-family="sans-serif" stroke="none" xml:space="preserve">a1</text>
    </g>
    <g fill="rgb(255,102,0)" text-rendering="geometricPrecision" shape-rendering="geometricPrecision" transform="matrix(1,0,0,1,-873,-507)" stroke="rgb(255,102,0)">
      <rect x="1490.544" width="59" height="50" y="811.232" clip-path="url(#clipPath2)" stroke="none"/>
    </g>
    <g text-rendering="geometricPrecision" stroke-miterlimit="1.45" shape-rendering="geometricPrecision" transform="matrix(1,0,0,1,-873,-507)" stroke-linecap="butt">
      <rect fill="none" x="1490.544" width="59" height="50" y="811.232" clip-path="url(#clipPath2)"/>
      <text x="1503.364" font-size="30px" y="843.102" clip-path="url(#clipPath2)" font-family="sans-serif" stroke="none" xml:space="preserve">p1</text>
    </g>
    <g fill="rgb(204,255,255)" text-rendering="geometricPrecision" shape-rendering="geometricPrecision" transform="matrix(1,0,0,1,-873,-507)" stroke="rgb(204,255,255)">
      <rect x="1490.544" width="59" height="50" y="861.232" clip-path="url(#clipPath2)" stroke="none"/>
    </g>
    <g text-rendering="geometricPrecision" stroke-miterlimit="1.45" shape-rendering="geometricPrecision" transform="matrix(1,0,0,1,-873,-507)" stroke-linecap="butt">
      <rect fill="none" x="1490.544" width="59" height="50" y="861.232" clip-path="url(#clipPath2)"/>
      <text x="1501.714" font-size="30px" y="893.102" clip-path="url(#clipPath2)" font-family="sans-serif" stroke="none" xml:space="preserve">list</text>
    </g>
    <g fill="yellow" text-rendering="geometricPrecision" shape-rendering="geometricPrecision" transform="matrix(1,0,0,1,-873,-507)" stroke="yellow">
      <rect x="1490.544" width="59" height="50" y="911.232" clip-path="url(#clipPath2)" stroke="none"/>
    </g>
    <g text-rendering="geometricPrecision" stroke-miterlimit="1.45" shape-rendering="geometricPrecision" transform="matrix(1,0,0,1,-873,-507)" stroke-linecap="butt">
      <rect fill="none" x="1490.544" width="59" height="50" y="911.232" clip-path="url(#clipPath2)"/>
      <text x="1503.364" font-size="30px" y="943.102" clip-path="url(#clipPath2)" font-family="sans-serif" stroke="none" xml:space="preserve">p2</text>
      <text x="1484.1941" font-size="30px" y="723.878" clip-path="url(#clipPath2)" font-family="sans-serif" stroke="none" xml:space="preserve">types</text>
    </g>
    <g fill="rgb(255,102,0)" text-rendering="geometricPrecision" shape-rendering="geometricPrecision" transform="matrix(1,0,0,1,-873,-507)" stroke="rgb(255,102,0)">
      <rect x="1372.544" width="59" height="50" y="752.872" clip-path="url(#clipPath2)" stroke="none"/>
    </g>
    <g text-rendering="geometricPrecision" stroke-miterlimit="1.45" shape-rendering="geometricPrecision" transform="matrix(1,0,0,1,-873,-507)" stroke-linecap="butt">
      <rect fill="none" x="1372.544" width="59" height="50" y="752.872" clip-path="url(#clipPath2)"/>
      <text x="1385.364" font-size="30px" y="784.742" clip-path="url(#clipPath2)" font-family="sans-serif" stroke="none" xml:space="preserve">p1</text>
    </g>
    <g fill="yellow" text-rendering="geometricPrecision" shape-rendering="geometricPrecision" transform="matrix(1,0,0,1,-873,-507)" stroke="yellow">
      <rect x="1372.544" width="59" height="50" y="802.872" clip-path="url(#clipPath2)" stroke="none"/>
    </g>
    <g text-rendering="geometricPrecision" stroke-miterlimit="1.45" shape-rendering="geometricPrecision" transform="matrix(1,0,0,1,-873,-507)" stroke-linecap="butt">
      <rect fill="none" x="1372.544" width="59" height="50" y="802.872" clip-path="url(#clipPath2)"/>
      <text x="1385.364" font-size="30px" y="834.742" clip-path="url(#clipPath2)" font-family="sans-serif" stroke="none" xml:space="preserve">p2</text>
      <text x="1617.3591" font-size="30px" y="789.102" clip-path="url(#clipPath2)" font-family="sans-serif" stroke="none" xml:space="preserve">isSubtype(Object[])</text>
      <text x="1614.0272" font-size="30px" y="843.102" clip-path="url(#clipPath2)" font-family="sans-serif" stroke="none" xml:space="preserve">isSubtype(example/ListExample$Point)</text>
      <text x="1618.1233" font-size="30px" y="943.102" clip-path="url(#clipPath2)" font-family="sans-serif" stroke="none" xml:space="preserve">isSubtype(example/ListExample$Point)</text>
      <text x="1616.2942" font-size="30px" y="893.422" clip-path="url(#clipPath2)" font-family="sans-serif" stroke="none" xml:space="preserve">isSubtype(java/util/ArrayList)</text>
      <path fill="none" d="M947.04 762.72 L1182.728 762.72 L1185.734 756.8936" clip-path="url(#clipPath2)"/>
      <path d="M1189.402 749.784 L1179.4565 758.1559 L1185.2755 757.7823 L1188.3435 762.7408 Z" clip-path="url(#clipPath2)" stroke="none"/>
      <path fill="none" d="M947.04 762.72 L991.24 762.72 L991.24 643.936 L1183.752 643.936 L1188.4534 630.3445" clip-path="url(#clipPath2)"/>
      <path d="M1191.0685 622.784 L1182.4205 632.4903 L1188.1265 631.2896 L1191.8711 635.7592 Z" clip-path="url(#clipPath2)" stroke="none"/>
      <path fill="none" d="M1199.7159 622.784 L1199.7159 648.032 L1360.0601 648.032 L1364.5442 648.0055" clip-path="url(#clipPath2)"/>
      <path d="M1372.5441 647.9583 L1360.5148 643.0292 L1363.5442 648.0114 L1360.5739 653.0291 Z" clip-path="url(#clipPath2)" stroke="none"/>
      <path fill="none" d="M1402.0439 672.784 L1402.0439 744.872" clip-path="url(#clipPath2)"/>
      <path d="M1402.0439 752.872 L1407.0439 740.872 L1402.0439 743.872 L1397.0439 740.872 Z" clip-path="url(#clipPath2)" stroke="none"/>
      <path fill="none" d="M1372.5439 777.872 L985.608 777.872 L985.608 905.568 L1146.884 905.568 L1146.884 884.784" clip-path="url(#clipPath2)"/>
      <path d="M1146.884 876.784 L1141.884 888.784 L1146.884 885.784 L1151.884 888.784 Z" clip-path="url(#clipPath2)" stroke="none"/>
      <path fill="none" d="M1372.5439 777.872 L985.608 777.872 L985.608 905.568 L1146.884 905.568 L1146.884 924.736" clip-path="url(#clipPath2)"/>
      <path d="M1146.884 932.736 L1151.884 920.736 L1146.884 923.736 L1141.884 920.736 Z" clip-path="url(#clipPath2)" stroke="none"/>
      <path fill="none" d="M1372.5439 827.872 L1337.864 827.872 L1337.864 904.544 L1264.884 904.544 L1264.884 884.784" clip-path="url(#clipPath2)"/>
      <path d="M1264.884 876.784 L1259.884 888.784 L1264.884 885.784 L1269.884 888.784 Z" clip-path="url(#clipPath2)" stroke="none"/>
      <path fill="none" d="M1372.5439 827.872 L1337.864 827.872 L1337.864 904.544 L1264.884 904.544 L1264.884 924.736" clip-path="url(#clipPath2)"/>
      <path d="M1264.884 932.736 L1269.884 920.736 L1264.884 923.736 L1259.884 920.736 Z" clip-path="url(#clipPath2)" stroke="none"/>
      <path fill="none" d="M1549.5439 786.232 L1607.152 786.232" clip-path="url(#clipPath2)"/>
      <path d="M1615.152 786.232 L1603.152 781.232 L1606.152 786.232 L1603.152 791.232 Z" clip-path="url(#clipPath2)" stroke="none"/>
      <path fill="none" d="M1549.5439 836.232 L1607.152 836.232" clip-path="url(#clipPath2)"/>
      <path d="M1615.152 836.232 L1603.152 831.232 L1606.152 836.232 L1603.152 841.232 Z" clip-path="url(#clipPath2)" stroke="none"/>
      <path fill="none" d="M1549.5439 936.232 L1607.152 936.232" clip-path="url(#clipPath2)"/>
      <path d="M1615.152 936.232 L1603.152 931.232 L1606.152 936.232 L1603.152 941.232 Z" clip-path="url(#clipPath2)" stroke="none"/>
      <path fill="none" d="M1549.5439 886.3077 L1607.152 886.4557" clip-path="url(#clipPath2)"/>
      <path d="M1615.152 886.4763 L1603.1649 881.4454 L1606.152 886.4531 L1603.1392 891.4454 Z" clip-path="url(#clipPath2)" stroke="none"/>
    </g>
  </g>
</svg>
