<?xml version="1.0" encoding="UTF-8"?><svg xmlns="http://www.w3.org/2000/svg" xmlns:xlink="http://www.w3.org/1999/xlink" fill-opacity="1" color-rendering="auto" color-interpolation="auto" text-rendering="auto" stroke="black" stroke-linecap="square" width="2135" stroke-miterlimit="10" shape-rendering="auto" stroke-opacity="1" fill="black" stroke-dasharray="none" font-weight="normal" stroke-width="1" height="633" font-family="'Dialog'" font-style="normal" stroke-linejoin="miter" font-size="12px" stroke-dashoffset="0" image-rendering="auto">
  <!--Generated by ySVG 2.5-->
  <defs id="genericDefs"/>
  <g>
    <defs id="defs1">
      <clipPath clipPathUnits="userSpaceOnUse" id="clipPath1">
        <path d="M0 0 L2135 0 L2135 633 L0 633 L0 0 Z"/>
      </clipPath>
      <clipPath clipPathUnits="userSpaceOnUse" id="clipPath2">
        <path d="M660 547 L2795 547 L2795 1180 L660 1180 L660 547 Z"/>
      </clipPath>
    </defs>
    <g fill="rgb(245,245,245)" text-rendering="geometricPrecision" shape-rendering="geometricPrecision" transform="matrix(1,0,0,1,-660,-547)" stroke="rgb(245,245,245)">
      <rect x="2038.512" y="562.568" clip-path="url(#clipPath2)" width="741.4063" rx="4" ry="4" height="595.784" stroke="none"/>
    </g>
    <g fill="rgb(235,235,235)" text-rendering="geometricPrecision" shape-rendering="geometricPrecision" transform="matrix(1,0,0,1,-660,-547)" stroke="rgb(235,235,235)">
      <rect x="2038.512" width="741.4063" height="44" y="562.568" clip-path="url(#clipPath2)" stroke="none"/>
    </g>
    <g font-size="40px" stroke-linecap="butt" transform="matrix(1,0,0,1,-660,-547)" text-rendering="geometricPrecision" font-family="sans-serif" shape-rendering="geometricPrecision" stroke-miterlimit="1.45">
      <text x="2548.9985" xml:space="preserve" y="593.728" clip-path="url(#clipPath2)" stroke="none">final memory</text>
      <line y2="604.568" fill="none" x1="2040.512" clip-path="url(#clipPath2)" x2="2777.9183" y1="604.568"/>
      <rect x="2038.512" y="562.568" clip-path="url(#clipPath2)" fill="none" width="741.4063" stroke-dasharray="6,2" rx="4" ry="4" height="595.784"/>
    </g>
    <g fill="rgb(204,255,255)" text-rendering="geometricPrecision" shape-rendering="geometricPrecision" transform="matrix(1,0,0,1,-660,-547)" stroke="rgb(204,255,255)">
      <rect x="2064.624" width="59" height="50" y="836.504" clip-path="url(#clipPath2)" stroke="none"/>
    </g>
    <g text-rendering="geometricPrecision" stroke-miterlimit="1.45" shape-rendering="geometricPrecision" transform="matrix(1,0,0,1,-660,-547)" stroke-linecap="butt">
      <rect fill="none" x="2064.624" width="59" height="50" y="836.504" clip-path="url(#clipPath2)"/>
      <text x="2075.7939" font-size="30px" y="868.374" clip-path="url(#clipPath2)" font-family="sans-serif" stroke="none" xml:space="preserve">list</text>
    </g>
    <g fill="silver" text-rendering="geometricPrecision" shape-rendering="geometricPrecision" transform="matrix(1,0,0,1,-660,-547)" stroke="silver">
      <rect x="2207.184" width="59" height="50" y="798.568" clip-path="url(#clipPath2)" stroke="none"/>
    </g>
    <g text-rendering="geometricPrecision" stroke-miterlimit="1.45" shape-rendering="geometricPrecision" transform="matrix(1,0,0,1,-660,-547)" stroke-linecap="butt">
      <rect fill="none" x="2207.184" width="59" height="50" y="798.568" clip-path="url(#clipPath2)"/>
    </g>
    <g fill="silver" text-rendering="geometricPrecision" shape-rendering="geometricPrecision" transform="matrix(1,0,0,1,-660,-547)" stroke="silver">
      <rect x="2266.184" width="59" height="50" y="798.568" clip-path="url(#clipPath2)" stroke="none"/>
    </g>
    <g text-rendering="geometricPrecision" stroke-miterlimit="1.45" shape-rendering="geometricPrecision" transform="matrix(1,0,0,1,-660,-547)" stroke-linecap="butt">
      <rect fill="none" x="2266.184" width="59" height="50" y="798.568" clip-path="url(#clipPath2)"/>
    </g>
    <g fill="rgb(204,255,255)" text-rendering="geometricPrecision" shape-rendering="geometricPrecision" transform="matrix(1,0,0,1,-660,-547)" stroke="rgb(204,255,255)">
      <rect x="2325.184" width="59" height="50" y="798.568" clip-path="url(#clipPath2)" stroke="none"/>
    </g>
    <g text-rendering="geometricPrecision" stroke-miterlimit="1.45" shape-rendering="geometricPrecision" transform="matrix(1,0,0,1,-660,-547)" stroke-linecap="butt">
      <rect fill="none" x="2325.184" width="59" height="50" y="798.568" clip-path="url(#clipPath2)"/>
      <text x="2346.344" font-size="30px" y="830.438" clip-path="url(#clipPath2)" font-family="sans-serif" stroke="none" xml:space="preserve">2</text>
    </g>
    <g fill="silver" text-rendering="geometricPrecision" shape-rendering="geometricPrecision" transform="matrix(1,0,0,1,-660,-547)" stroke="silver">
      <rect x="2384.184" width="59" height="50" y="798.568" clip-path="url(#clipPath2)" stroke="none"/>
    </g>
    <g text-rendering="geometricPrecision" stroke-miterlimit="1.45" shape-rendering="geometricPrecision" transform="matrix(1,0,0,1,-660,-547)" stroke-linecap="butt">
      <rect fill="none" x="2384.184" width="59" height="50" y="798.568" clip-path="url(#clipPath2)"/>
    </g>
    <g fill="silver" text-rendering="geometricPrecision" shape-rendering="geometricPrecision" transform="matrix(1,0,0,1,-660,-547)" stroke="silver">
      <rect x="2204.6" width="59" height="50" y="671.568" clip-path="url(#clipPath2)" stroke="none"/>
    </g>
    <g text-rendering="geometricPrecision" stroke-miterlimit="1.45" shape-rendering="geometricPrecision" transform="matrix(1,0,0,1,-660,-547)" stroke-linecap="butt">
      <rect fill="none" x="2204.6" width="59" height="50" y="671.568" clip-path="url(#clipPath2)"/>
    </g>
    <g fill="silver" text-rendering="geometricPrecision" shape-rendering="geometricPrecision" transform="matrix(1,0,0,1,-660,-547)" stroke="silver">
      <rect x="2263.6" width="59" height="50" y="671.568" clip-path="url(#clipPath2)" stroke="none"/>
    </g>
    <g text-rendering="geometricPrecision" stroke-miterlimit="1.45" shape-rendering="geometricPrecision" transform="matrix(1,0,0,1,-660,-547)" stroke-linecap="butt">
      <rect fill="none" x="2263.6" width="59" height="50" y="671.568" clip-path="url(#clipPath2)"/>
    </g>
    <g fill="rgb(204,255,255)" text-rendering="geometricPrecision" shape-rendering="geometricPrecision" transform="matrix(1,0,0,1,-660,-547)" stroke="rgb(204,255,255)">
      <rect x="2322.6" width="59" height="50" y="671.568" clip-path="url(#clipPath2)" stroke="none"/>
    </g>
    <g text-rendering="geometricPrecision" stroke-miterlimit="1.45" shape-rendering="geometricPrecision" transform="matrix(1,0,0,1,-660,-547)" stroke-linecap="butt">
      <rect fill="none" x="2322.6" width="59" height="50" y="671.568" clip-path="url(#clipPath2)"/>
    </g>
    <g fill="silver" text-rendering="geometricPrecision" shape-rendering="geometricPrecision" transform="matrix(1,0,0,1,-660,-547)" stroke="silver">
      <rect x="2381.6" width="59" height="50" y="671.568" clip-path="url(#clipPath2)" stroke="none"/>
    </g>
    <g text-rendering="geometricPrecision" stroke-miterlimit="1.45" shape-rendering="geometricPrecision" transform="matrix(1,0,0,1,-660,-547)" stroke-linecap="butt">
      <rect fill="none" x="2381.6" width="59" height="50" y="671.568" clip-path="url(#clipPath2)"/>
    </g>
    <g fill="silver" text-rendering="geometricPrecision" shape-rendering="geometricPrecision" transform="matrix(1,0,0,1,-660,-547)" stroke="silver">
      <rect x="2210.768" width="59" height="50" y="925.568" clip-path="url(#clipPath2)" stroke="none"/>
    </g>
    <g text-rendering="geometricPrecision" stroke-miterlimit="1.45" shape-rendering="geometricPrecision" transform="matrix(1,0,0,1,-660,-547)" stroke-linecap="butt">
      <rect fill="none" x="2210.768" width="59" height="50" y="925.568" clip-path="url(#clipPath2)"/>
    </g>
    <g fill="rgb(255,102,0)" text-rendering="geometricPrecision" shape-rendering="geometricPrecision" transform="matrix(1,0,0,1,-660,-547)" stroke="rgb(255,102,0)">
      <rect x="2269.768" width="59" height="50" y="925.568" clip-path="url(#clipPath2)" stroke="none"/>
    </g>
    <g text-rendering="geometricPrecision" stroke-miterlimit="1.45" shape-rendering="geometricPrecision" transform="matrix(1,0,0,1,-660,-547)" stroke-linecap="butt">
      <rect fill="none" x="2269.768" width="59" height="50" y="925.568" clip-path="url(#clipPath2)"/>
      <text x="2282.5881" font-size="30px" y="957.438" clip-path="url(#clipPath2)" font-family="sans-serif" stroke="none" xml:space="preserve">10</text>
    </g>
    <g fill="yellow" text-rendering="geometricPrecision" shape-rendering="geometricPrecision" transform="matrix(1,0,0,1,-660,-547)" stroke="yellow">
      <rect x="2387.768" width="59" height="50" y="925.568" clip-path="url(#clipPath2)" stroke="none"/>
    </g>
    <g text-rendering="geometricPrecision" stroke-miterlimit="1.45" shape-rendering="geometricPrecision" transform="matrix(1,0,0,1,-660,-547)" stroke-linecap="butt">
      <rect fill="none" x="2387.768" width="59" height="50" y="925.568" clip-path="url(#clipPath2)"/>
      <text x="2408.928" font-size="30px" y="957.438" clip-path="url(#clipPath2)" font-family="sans-serif" stroke="none" xml:space="preserve">0</text>
    </g>
    <g fill="silver" text-rendering="geometricPrecision" shape-rendering="geometricPrecision" transform="matrix(1,0,0,1,-660,-547)" stroke="silver">
      <rect x="2328.768" width="59" height="50" y="925.568" clip-path="url(#clipPath2)" stroke="none"/>
    </g>
    <g text-rendering="geometricPrecision" stroke-miterlimit="1.45" shape-rendering="geometricPrecision" transform="matrix(1,0,0,1,-660,-547)" stroke-linecap="butt">
      <rect fill="none" x="2328.768" width="59" height="50" y="925.568" clip-path="url(#clipPath2)"/>
    </g>
    <g fill="silver" text-rendering="geometricPrecision" shape-rendering="geometricPrecision" transform="matrix(1,0,0,1,-660,-547)" stroke="silver">
      <rect x="2210.768" width="59" height="50" y="1043.352" clip-path="url(#clipPath2)" stroke="none"/>
    </g>
    <g text-rendering="geometricPrecision" stroke-miterlimit="1.45" shape-rendering="geometricPrecision" transform="matrix(1,0,0,1,-660,-547)" stroke-linecap="butt">
      <rect fill="none" x="2210.768" width="59" height="50" y="1043.352" clip-path="url(#clipPath2)"/>
    </g>
    <g fill="rgb(255,102,0)" text-rendering="geometricPrecision" shape-rendering="geometricPrecision" transform="matrix(1,0,0,1,-660,-547)" stroke="rgb(255,102,0)">
      <rect x="2269.768" width="59" height="50" y="1043.352" clip-path="url(#clipPath2)" stroke="none"/>
    </g>
    <g text-rendering="geometricPrecision" stroke-miterlimit="1.45" shape-rendering="geometricPrecision" transform="matrix(1,0,0,1,-660,-547)" stroke-linecap="butt">
      <rect fill="none" x="2269.768" width="59" height="50" y="1043.352" clip-path="url(#clipPath2)"/>
      <text x="2290.928" font-size="30px" y="1075.222" clip-path="url(#clipPath2)" font-family="sans-serif" stroke="none" xml:space="preserve">0</text>
    </g>
    <g fill="yellow" text-rendering="geometricPrecision" shape-rendering="geometricPrecision" transform="matrix(1,0,0,1,-660,-547)" stroke="yellow">
      <rect x="2387.768" width="59" height="50" y="1043.352" clip-path="url(#clipPath2)" stroke="none"/>
    </g>
    <g text-rendering="geometricPrecision" stroke-miterlimit="1.45" shape-rendering="geometricPrecision" transform="matrix(1,0,0,1,-660,-547)" stroke-linecap="butt">
      <rect fill="none" x="2387.768" width="59" height="50" y="1043.352" clip-path="url(#clipPath2)"/>
      <text x="2400.5881" font-size="30px" y="1075.222" clip-path="url(#clipPath2)" font-family="sans-serif" stroke="none" xml:space="preserve">11</text>
    </g>
    <g fill="silver" text-rendering="geometricPrecision" shape-rendering="geometricPrecision" transform="matrix(1,0,0,1,-660,-547)" stroke="silver">
      <rect x="2328.768" width="59" height="50" y="1043.352" clip-path="url(#clipPath2)" stroke="none"/>
    </g>
    <g text-rendering="geometricPrecision" stroke-miterlimit="1.45" shape-rendering="geometricPrecision" transform="matrix(1,0,0,1,-660,-547)" stroke-linecap="butt">
      <rect fill="none" x="2328.768" width="59" height="50" y="1043.352" clip-path="url(#clipPath2)"/>
      <text x="2180.6492" font-size="30px" y="780.438" clip-path="url(#clipPath2)" font-family="sans-serif" stroke="none" xml:space="preserve">java/util/ArrayList.size</text>
      <text x="2122.2842" font-size="30px" y="653.438" clip-path="url(#clipPath2)" font-family="sans-serif" stroke="none" xml:space="preserve">java/util/ArrayList.elementData</text>
      <text x="2132.5283" font-size="30px" y="907.438" clip-path="url(#clipPath2)" font-family="sans-serif" stroke="none" xml:space="preserve">example/ListExample$Point.x</text>
      <text x="2131.5283" font-size="30px" y="1125.222" clip-path="url(#clipPath2)" font-family="sans-serif" stroke="none" xml:space="preserve">example/ListExample$Point.y</text>
    </g>
    <g fill="rgb(0,204,255)" text-rendering="geometricPrecision" shape-rendering="geometricPrecision" transform="matrix(1,0,0,1,-660,-547)" stroke="rgb(0,204,255)">
      <rect x="2524.928" width="59" height="50" y="721.568" clip-path="url(#clipPath2)" stroke="none"/>
    </g>
    <g text-rendering="geometricPrecision" stroke-miterlimit="1.45" shape-rendering="geometricPrecision" transform="matrix(1,0,0,1,-660,-547)" stroke-linecap="butt">
      <rect fill="none" x="2524.928" width="59" height="50" y="721.568" clip-path="url(#clipPath2)"/>
      <text x="2537.748" font-size="30px" y="753.438" clip-path="url(#clipPath2)" font-family="sans-serif" stroke="none" xml:space="preserve">a1</text>
    </g>
    <g fill="silver" text-rendering="geometricPrecision" shape-rendering="geometricPrecision" transform="matrix(1,0,0,1,-660,-547)" stroke="silver">
      <rect x="2583.928" width="59" height="50" y="721.568" clip-path="url(#clipPath2)" stroke="none"/>
    </g>
    <g text-rendering="geometricPrecision" stroke-miterlimit="1.45" shape-rendering="geometricPrecision" transform="matrix(1,0,0,1,-660,-547)" stroke-linecap="butt">
      <rect fill="none" x="2583.928" width="59" height="50" y="721.568" clip-path="url(#clipPath2)"/>
    </g>
    <g fill="silver" text-rendering="geometricPrecision" shape-rendering="geometricPrecision" transform="matrix(1,0,0,1,-660,-547)" stroke="silver">
      <rect x="2642.928" width="59" height="50" y="721.568" clip-path="url(#clipPath2)" stroke="none"/>
    </g>
    <g text-rendering="geometricPrecision" stroke-miterlimit="1.45" shape-rendering="geometricPrecision" transform="matrix(1,0,0,1,-660,-547)" stroke-linecap="butt">
      <rect fill="none" x="2642.928" width="59" height="50" y="721.568" clip-path="url(#clipPath2)"/>
    </g>
    <g fill="silver" text-rendering="geometricPrecision" shape-rendering="geometricPrecision" transform="matrix(1,0,0,1,-660,-547)" stroke="silver">
      <rect x="2701.928" width="59" height="50" y="721.568" clip-path="url(#clipPath2)" stroke="none"/>
    </g>
    <g text-rendering="geometricPrecision" stroke-miterlimit="1.45" shape-rendering="geometricPrecision" transform="matrix(1,0,0,1,-660,-547)" stroke-linecap="butt">
      <rect fill="none" x="2701.928" width="59" height="50" y="721.568" clip-path="url(#clipPath2)"/>
      <text x="2601.7581" font-size="30px" y="703.438" clip-path="url(#clipPath2)" font-family="sans-serif" stroke="none" xml:space="preserve">arrays</text>
    </g>
    <g fill="rgb(0,204,255)" text-rendering="geometricPrecision" shape-rendering="geometricPrecision" transform="matrix(1,0,0,1,-660,-547)" stroke="rgb(0,204,255)">
      <rect x="2642.928" width="59" height="50" y="893.352" clip-path="url(#clipPath2)" stroke="none"/>
    </g>
    <g text-rendering="geometricPrecision" stroke-miterlimit="1.45" shape-rendering="geometricPrecision" transform="matrix(1,0,0,1,-660,-547)" stroke-linecap="butt">
      <rect fill="none" x="2642.928" width="59" height="50" y="893.352" clip-path="url(#clipPath2)"/>
      <text x="2655.748" font-size="30px" y="925.222" clip-path="url(#clipPath2)" font-family="sans-serif" stroke="none" xml:space="preserve">a1</text>
    </g>
    <g fill="rgb(255,102,0)" text-rendering="geometricPrecision" shape-rendering="geometricPrecision" transform="matrix(1,0,0,1,-660,-547)" stroke="rgb(255,102,0)">
      <rect x="2642.928" width="59" height="50" y="943.352" clip-path="url(#clipPath2)" stroke="none"/>
    </g>
    <g text-rendering="geometricPrecision" stroke-miterlimit="1.45" shape-rendering="geometricPrecision" transform="matrix(1,0,0,1,-660,-547)" stroke-linecap="butt">
      <rect fill="none" x="2642.928" width="59" height="50" y="943.352" clip-path="url(#clipPath2)"/>
      <text x="2655.748" font-size="30px" y="975.222" clip-path="url(#clipPath2)" font-family="sans-serif" stroke="none" xml:space="preserve">p1</text>
    </g>
    <g fill="rgb(204,255,255)" text-rendering="geometricPrecision" shape-rendering="geometricPrecision" transform="matrix(1,0,0,1,-660,-547)" stroke="rgb(204,255,255)">
      <rect x="2642.928" width="59" height="50" y="993.352" clip-path="url(#clipPath2)" stroke="none"/>
    </g>
    <g text-rendering="geometricPrecision" stroke-miterlimit="1.45" shape-rendering="geometricPrecision" transform="matrix(1,0,0,1,-660,-547)" stroke-linecap="butt">
      <rect fill="none" x="2642.928" width="59" height="50" y="993.352" clip-path="url(#clipPath2)"/>
      <text x="2654.0979" font-size="30px" y="1025.222" clip-path="url(#clipPath2)" font-family="sans-serif" stroke="none" xml:space="preserve">list</text>
    </g>
    <g fill="yellow" text-rendering="geometricPrecision" shape-rendering="geometricPrecision" transform="matrix(1,0,0,1,-660,-547)" stroke="yellow">
      <rect x="2642.928" width="59" height="50" y="1043.352" clip-path="url(#clipPath2)" stroke="none"/>
    </g>
    <g text-rendering="geometricPrecision" stroke-miterlimit="1.45" shape-rendering="geometricPrecision" transform="matrix(1,0,0,1,-660,-547)" stroke-linecap="butt">
      <rect fill="none" x="2642.928" width="59" height="50" y="1043.352" clip-path="url(#clipPath2)"/>
      <text x="2655.748" font-size="30px" y="1075.222" clip-path="url(#clipPath2)" font-family="sans-serif" stroke="none" xml:space="preserve">p2</text>
      <text x="2636.5781" font-size="30px" y="822.662" clip-path="url(#clipPath2)" font-family="sans-serif" stroke="none" xml:space="preserve">types</text>
    </g>
    <g fill="rgb(255,102,0)" text-rendering="geometricPrecision" shape-rendering="geometricPrecision" transform="matrix(1,0,0,1,-660,-547)" stroke="rgb(255,102,0)">
      <rect x="2524.928" width="59" height="50" y="851.656" clip-path="url(#clipPath2)" stroke="none"/>
    </g>
    <g text-rendering="geometricPrecision" stroke-miterlimit="1.45" shape-rendering="geometricPrecision" transform="matrix(1,0,0,1,-660,-547)" stroke-linecap="butt">
      <rect fill="none" x="2524.928" width="59" height="50" y="851.656" clip-path="url(#clipPath2)"/>
      <text x="2537.748" font-size="30px" y="883.526" clip-path="url(#clipPath2)" font-family="sans-serif" stroke="none" xml:space="preserve">p1</text>
    </g>
    <g fill="yellow" text-rendering="geometricPrecision" shape-rendering="geometricPrecision" transform="matrix(1,0,0,1,-660,-547)" stroke="yellow">
      <rect x="2524.928" width="59" height="50" y="901.656" clip-path="url(#clipPath2)" stroke="none"/>
    </g>
    <g text-rendering="geometricPrecision" stroke-miterlimit="1.45" shape-rendering="geometricPrecision" transform="matrix(1,0,0,1,-660,-547)" stroke-linecap="butt">
      <rect fill="none" x="2524.928" width="59" height="50" y="901.656" clip-path="url(#clipPath2)"/>
      <text x="2537.748" font-size="30px" y="933.526" clip-path="url(#clipPath2)" font-family="sans-serif" stroke="none" xml:space="preserve">p2</text>
    </g>
    <g fill="silver" text-rendering="geometricPrecision" shape-rendering="geometricPrecision" transform="matrix(1,0,0,1,-660,-547)" stroke="silver">
      <rect x="2642.928" width="59" height="50" y="843.352" clip-path="url(#clipPath2)" stroke="none"/>
    </g>
    <g text-rendering="geometricPrecision" stroke-miterlimit="1.45" shape-rendering="geometricPrecision" transform="matrix(1,0,0,1,-660,-547)" stroke-linecap="butt">
      <rect fill="none" x="2642.928" width="59" height="50" y="843.352" clip-path="url(#clipPath2)"/>
    </g>
    <g fill="silver" text-rendering="geometricPrecision" shape-rendering="geometricPrecision" transform="matrix(1,0,0,1,-660,-547)" stroke="silver">
      <rect x="2642.928" width="59" height="50" y="1093.352" clip-path="url(#clipPath2)" stroke="none"/>
    </g>
    <g text-rendering="geometricPrecision" stroke-miterlimit="1.45" shape-rendering="geometricPrecision" transform="matrix(1,0,0,1,-660,-547)" stroke-linecap="butt">
      <rect fill="none" x="2642.928" width="59" height="50" y="1093.352" clip-path="url(#clipPath2)"/>
      <path fill="none" d="M2123.624 861.504 L2335.1121 861.504 L2338.1179 855.6776" clip-path="url(#clipPath2)"/>
      <path d="M2341.7859 848.568 L2331.8403 856.9399 L2337.6594 856.5663 L2340.7273 861.5248 Z" clip-path="url(#clipPath2)" stroke="none"/>
      <path fill="none" d="M2123.624 861.504 L2143.624 861.504 L2143.624 742.72 L2336.136 742.72 L2340.8374 729.1285" clip-path="url(#clipPath2)"/>
      <path d="M2343.4524 721.5679 L2334.8044 731.2744 L2340.5105 730.0735 L2344.2551 734.5431 Z" clip-path="url(#clipPath2)" stroke="none"/>
      <path fill="none" d="M2352.1001 721.568 L2352.1001 746.816 L2512.4441 746.816 L2516.9282 746.7895" clip-path="url(#clipPath2)"/>
      <path d="M2524.928 746.7422 L2512.8987 741.8132 L2515.9282 746.7954 L2512.9578 751.813 Z" clip-path="url(#clipPath2)" stroke="none"/>
      <path fill="none" d="M2554.428 771.568 L2554.428 843.656" clip-path="url(#clipPath2)"/>
      <path d="M2554.428 851.656 L2559.428 839.656 L2554.428 842.656 L2549.428 839.656 Z" clip-path="url(#clipPath2)" stroke="none"/>
      <path fill="none" d="M2524.928 876.656 L2137.9919 876.656 L2137.9919 1009.984 L2299.2681 1009.984 L2299.2681 983.568" clip-path="url(#clipPath2)"/>
      <path d="M2299.2681 975.568 L2294.2681 987.568 L2299.2681 984.568 L2304.2681 987.568 Z" clip-path="url(#clipPath2)" stroke="none"/>
      <path fill="none" d="M2524.928 876.656 L2137.9919 876.656 L2137.9919 1011.008 L2299.2681 1011.008 L2299.2681 1035.3521" clip-path="url(#clipPath2)"/>
      <path d="M2299.2681 1043.3521 L2304.2681 1031.3521 L2299.2681 1034.3521 L2294.2681 1031.3521 Z" clip-path="url(#clipPath2)" stroke="none"/>
      <path fill="none" d="M2524.928 926.656 L2490.248 926.656 L2490.248 1011.52 L2417.2681 1011.52 L2417.2681 983.568" clip-path="url(#clipPath2)"/>
      <path d="M2417.2681 975.568 L2412.2681 987.568 L2417.2681 984.568 L2422.2681 987.568 Z" clip-path="url(#clipPath2)" stroke="none"/>
      <path fill="none" d="M2524.928 926.656 L2490.248 926.656 L2490.248 1011.52 L2417.2681 1011.52 L2417.2681 1035.3521" clip-path="url(#clipPath2)"/>
      <path d="M2417.2681 1043.3521 L2422.2681 1031.3521 L2417.2681 1034.3521 L2412.2681 1031.3521 Z" clip-path="url(#clipPath2)" stroke="none"/>
    </g>
    <g fill="rgb(245,245,245)" text-rendering="geometricPrecision" shape-rendering="geometricPrecision" transform="matrix(1,0,0,1,-660,-547)" stroke="rgb(245,245,245)">
      <rect x="675.968" y="568.612" clip-path="url(#clipPath2)" width="668.504" rx="4" ry="4" height="595.784" stroke="none"/>
      <rect x="675.968" y="568.612" clip-path="url(#clipPath2)" fill="rgb(235,235,235)" width="668.504" height="44" stroke="none"/>
    </g>
    <g font-size="40px" stroke-linecap="butt" transform="matrix(1,0,0,1,-660,-547)" text-rendering="geometricPrecision" font-family="sans-serif" shape-rendering="geometricPrecision" stroke-miterlimit="1.45">
      <text x="1095.7922" xml:space="preserve" y="599.772" clip-path="url(#clipPath2)" stroke="none">initial memory</text>
      <line y2="610.612" fill="none" x1="677.968" clip-path="url(#clipPath2)" x2="1342.472" y1="610.612"/>
      <rect x="675.968" y="568.612" clip-path="url(#clipPath2)" fill="none" width="668.504" stroke-dasharray="6,2" rx="4" ry="4" height="595.784"/>
    </g>
    <g fill="silver" text-rendering="geometricPrecision" shape-rendering="geometricPrecision" transform="matrix(1,0,0,1,-660,-547)" stroke="silver">
      <rect x="704.968" width="59" height="50" y="814.548" clip-path="url(#clipPath2)" stroke="none"/>
    </g>
    <g text-rendering="geometricPrecision" stroke-miterlimit="1.45" shape-rendering="geometricPrecision" transform="matrix(1,0,0,1,-660,-547)" stroke-linecap="butt">
      <rect fill="none" x="704.968" width="59" height="50" y="814.548" clip-path="url(#clipPath2)"/>
      <text x="716.138" font-size="30px" y="846.418" clip-path="url(#clipPath2)" font-family="sans-serif" stroke="none" xml:space="preserve">list</text>
    </g>
    <g fill="silver" text-rendering="geometricPrecision" shape-rendering="geometricPrecision" transform="matrix(1,0,0,1,-660,-547)" stroke="silver">
      <rect x="810.728" width="59" height="50" y="804.612" clip-path="url(#clipPath2)" stroke="none"/>
    </g>
    <g text-rendering="geometricPrecision" stroke-miterlimit="1.45" shape-rendering="geometricPrecision" transform="matrix(1,0,0,1,-660,-547)" stroke-linecap="butt">
      <rect fill="none" x="810.728" width="59" height="50" y="804.612" clip-path="url(#clipPath2)"/>
    </g>
    <g fill="silver" text-rendering="geometricPrecision" shape-rendering="geometricPrecision" transform="matrix(1,0,0,1,-660,-547)" stroke="silver">
      <rect x="869.728" width="59" height="50" y="804.612" clip-path="url(#clipPath2)" stroke="none"/>
    </g>
    <g text-rendering="geometricPrecision" stroke-miterlimit="1.45" shape-rendering="geometricPrecision" transform="matrix(1,0,0,1,-660,-547)" stroke-linecap="butt">
      <rect fill="none" x="869.728" width="59" height="50" y="804.612" clip-path="url(#clipPath2)"/>
    </g>
    <g fill="silver" text-rendering="geometricPrecision" shape-rendering="geometricPrecision" transform="matrix(1,0,0,1,-660,-547)" stroke="silver">
      <rect x="928.728" width="59" height="50" y="804.612" clip-path="url(#clipPath2)" stroke="none"/>
    </g>
    <g text-rendering="geometricPrecision" stroke-miterlimit="1.45" shape-rendering="geometricPrecision" transform="matrix(1,0,0,1,-660,-547)" stroke-linecap="butt">
      <rect fill="none" x="928.728" width="59" height="50" y="804.612" clip-path="url(#clipPath2)"/>
    </g>
    <g fill="silver" text-rendering="geometricPrecision" shape-rendering="geometricPrecision" transform="matrix(1,0,0,1,-660,-547)" stroke="silver">
      <rect x="987.728" width="59" height="50" y="804.612" clip-path="url(#clipPath2)" stroke="none"/>
    </g>
    <g text-rendering="geometricPrecision" stroke-miterlimit="1.45" shape-rendering="geometricPrecision" transform="matrix(1,0,0,1,-660,-547)" stroke-linecap="butt">
      <rect fill="none" x="987.728" width="59" height="50" y="804.612" clip-path="url(#clipPath2)"/>
    </g>
    <g fill="silver" text-rendering="geometricPrecision" shape-rendering="geometricPrecision" transform="matrix(1,0,0,1,-660,-547)" stroke="silver">
      <rect x="808.144" width="59" height="50" y="677.612" clip-path="url(#clipPath2)" stroke="none"/>
    </g>
    <g text-rendering="geometricPrecision" stroke-miterlimit="1.45" shape-rendering="geometricPrecision" transform="matrix(1,0,0,1,-660,-547)" stroke-linecap="butt">
      <rect fill="none" x="808.144" width="59" height="50" y="677.612" clip-path="url(#clipPath2)"/>
    </g>
    <g fill="silver" text-rendering="geometricPrecision" shape-rendering="geometricPrecision" transform="matrix(1,0,0,1,-660,-547)" stroke="silver">
      <rect x="867.144" width="59" height="50" y="677.612" clip-path="url(#clipPath2)" stroke="none"/>
    </g>
    <g text-rendering="geometricPrecision" stroke-miterlimit="1.45" shape-rendering="geometricPrecision" transform="matrix(1,0,0,1,-660,-547)" stroke-linecap="butt">
      <rect fill="none" x="867.144" width="59" height="50" y="677.612" clip-path="url(#clipPath2)"/>
    </g>
    <g fill="silver" text-rendering="geometricPrecision" shape-rendering="geometricPrecision" transform="matrix(1,0,0,1,-660,-547)" stroke="silver">
      <rect x="926.144" width="59" height="50" y="677.612" clip-path="url(#clipPath2)" stroke="none"/>
    </g>
    <g text-rendering="geometricPrecision" stroke-miterlimit="1.45" shape-rendering="geometricPrecision" transform="matrix(1,0,0,1,-660,-547)" stroke-linecap="butt">
      <rect fill="none" x="926.144" width="59" height="50" y="677.612" clip-path="url(#clipPath2)"/>
    </g>
    <g fill="silver" text-rendering="geometricPrecision" shape-rendering="geometricPrecision" transform="matrix(1,0,0,1,-660,-547)" stroke="silver">
      <rect x="985.144" width="59" height="50" y="677.612" clip-path="url(#clipPath2)" stroke="none"/>
    </g>
    <g text-rendering="geometricPrecision" stroke-miterlimit="1.45" shape-rendering="geometricPrecision" transform="matrix(1,0,0,1,-660,-547)" stroke-linecap="butt">
      <rect fill="none" x="985.144" width="59" height="50" y="677.612" clip-path="url(#clipPath2)"/>
    </g>
    <g fill="silver" text-rendering="geometricPrecision" shape-rendering="geometricPrecision" transform="matrix(1,0,0,1,-660,-547)" stroke="silver">
      <rect x="814.312" width="59" height="50" y="931.612" clip-path="url(#clipPath2)" stroke="none"/>
    </g>
    <g text-rendering="geometricPrecision" stroke-miterlimit="1.45" shape-rendering="geometricPrecision" transform="matrix(1,0,0,1,-660,-547)" stroke-linecap="butt">
      <rect fill="none" x="814.312" width="59" height="50" y="931.612" clip-path="url(#clipPath2)"/>
    </g>
    <g fill="silver" text-rendering="geometricPrecision" shape-rendering="geometricPrecision" transform="matrix(1,0,0,1,-660,-547)" stroke="silver">
      <rect x="873.312" width="59" height="50" y="931.612" clip-path="url(#clipPath2)" stroke="none"/>
    </g>
    <g text-rendering="geometricPrecision" stroke-miterlimit="1.45" shape-rendering="geometricPrecision" transform="matrix(1,0,0,1,-660,-547)" stroke-linecap="butt">
      <rect fill="none" x="873.312" width="59" height="50" y="931.612" clip-path="url(#clipPath2)"/>
    </g>
    <g fill="silver" text-rendering="geometricPrecision" shape-rendering="geometricPrecision" transform="matrix(1,0,0,1,-660,-547)" stroke="silver">
      <rect x="991.312" width="59" height="50" y="931.612" clip-path="url(#clipPath2)" stroke="none"/>
    </g>
    <g text-rendering="geometricPrecision" stroke-miterlimit="1.45" shape-rendering="geometricPrecision" transform="matrix(1,0,0,1,-660,-547)" stroke-linecap="butt">
      <rect fill="none" x="991.312" width="59" height="50" y="931.612" clip-path="url(#clipPath2)"/>
    </g>
    <g fill="silver" text-rendering="geometricPrecision" shape-rendering="geometricPrecision" transform="matrix(1,0,0,1,-660,-547)" stroke="silver">
      <rect x="932.312" width="59" height="50" y="931.612" clip-path="url(#clipPath2)" stroke="none"/>
    </g>
    <g text-rendering="geometricPrecision" stroke-miterlimit="1.45" shape-rendering="geometricPrecision" transform="matrix(1,0,0,1,-660,-547)" stroke-linecap="butt">
      <rect fill="none" x="932.312" width="59" height="50" y="931.612" clip-path="url(#clipPath2)"/>
    </g>
    <g fill="silver" text-rendering="geometricPrecision" shape-rendering="geometricPrecision" transform="matrix(1,0,0,1,-660,-547)" stroke="silver">
      <rect x="814.312" width="59" height="50" y="1049.396" clip-path="url(#clipPath2)" stroke="none"/>
    </g>
    <g text-rendering="geometricPrecision" stroke-miterlimit="1.45" shape-rendering="geometricPrecision" transform="matrix(1,0,0,1,-660,-547)" stroke-linecap="butt">
      <rect fill="none" x="814.312" width="59" height="50" y="1049.396" clip-path="url(#clipPath2)"/>
    </g>
    <g fill="silver" text-rendering="geometricPrecision" shape-rendering="geometricPrecision" transform="matrix(1,0,0,1,-660,-547)" stroke="silver">
      <rect x="873.312" width="59" height="50" y="1049.396" clip-path="url(#clipPath2)" stroke="none"/>
    </g>
    <g text-rendering="geometricPrecision" stroke-miterlimit="1.45" shape-rendering="geometricPrecision" transform="matrix(1,0,0,1,-660,-547)" stroke-linecap="butt">
      <rect fill="none" x="873.312" width="59" height="50" y="1049.396" clip-path="url(#clipPath2)"/>
    </g>
    <g fill="silver" text-rendering="geometricPrecision" shape-rendering="geometricPrecision" transform="matrix(1,0,0,1,-660,-547)" stroke="silver">
      <rect x="991.312" width="59" height="50" y="1049.396" clip-path="url(#clipPath2)" stroke="none"/>
    </g>
    <g text-rendering="geometricPrecision" stroke-miterlimit="1.45" shape-rendering="geometricPrecision" transform="matrix(1,0,0,1,-660,-547)" stroke-linecap="butt">
      <rect fill="none" x="991.312" width="59" height="50" y="1049.396" clip-path="url(#clipPath2)"/>
    </g>
    <g fill="silver" text-rendering="geometricPrecision" shape-rendering="geometricPrecision" transform="matrix(1,0,0,1,-660,-547)" stroke="silver">
      <rect x="932.312" width="59" height="50" y="1049.396" clip-path="url(#clipPath2)" stroke="none"/>
    </g>
    <g text-rendering="geometricPrecision" stroke-miterlimit="1.45" shape-rendering="geometricPrecision" transform="matrix(1,0,0,1,-660,-547)" stroke-linecap="butt">
      <rect fill="none" x="932.312" width="59" height="50" y="1049.396" clip-path="url(#clipPath2)"/>
      <text x="784.1932" font-size="30px" y="786.482" clip-path="url(#clipPath2)" font-family="sans-serif" stroke="none" xml:space="preserve">java/util/ArrayList.size</text>
      <text x="725.8282" font-size="30px" y="659.482" clip-path="url(#clipPath2)" font-family="sans-serif" stroke="none" xml:space="preserve">java/util/ArrayList.elementData</text>
      <text x="736.0722" font-size="30px" y="913.482" clip-path="url(#clipPath2)" font-family="sans-serif" stroke="none" xml:space="preserve">example/ListExample$Point.x</text>
      <text x="735.0722" font-size="30px" y="1131.266" clip-path="url(#clipPath2)" font-family="sans-serif" stroke="none" xml:space="preserve">example/ListExample$Point.y</text>
    </g>
    <g fill="silver" text-rendering="geometricPrecision" shape-rendering="geometricPrecision" transform="matrix(1,0,0,1,-660,-547)" stroke="silver">
      <rect x="1080.056" width="59" height="50" y="712.612" clip-path="url(#clipPath2)" stroke="none"/>
    </g>
    <g text-rendering="geometricPrecision" stroke-miterlimit="1.45" shape-rendering="geometricPrecision" transform="matrix(1,0,0,1,-660,-547)" stroke-linecap="butt">
      <rect fill="none" x="1080.056" width="59" height="50" y="712.612" clip-path="url(#clipPath2)"/>
    </g>
    <g fill="silver" text-rendering="geometricPrecision" shape-rendering="geometricPrecision" transform="matrix(1,0,0,1,-660,-547)" stroke="silver">
      <rect x="1139.056" width="59" height="50" y="712.612" clip-path="url(#clipPath2)" stroke="none"/>
    </g>
    <g text-rendering="geometricPrecision" stroke-miterlimit="1.45" shape-rendering="geometricPrecision" transform="matrix(1,0,0,1,-660,-547)" stroke-linecap="butt">
      <rect fill="none" x="1139.056" width="59" height="50" y="712.612" clip-path="url(#clipPath2)"/>
    </g>
    <g fill="silver" text-rendering="geometricPrecision" shape-rendering="geometricPrecision" transform="matrix(1,0,0,1,-660,-547)" stroke="silver">
      <rect x="1198.056" width="59" height="50" y="712.612" clip-path="url(#clipPath2)" stroke="none"/>
    </g>
    <g text-rendering="geometricPrecision" stroke-miterlimit="1.45" shape-rendering="geometricPrecision" transform="matrix(1,0,0,1,-660,-547)" stroke-linecap="butt">
      <rect fill="none" x="1198.056" width="59" height="50" y="712.612" clip-path="url(#clipPath2)"/>
    </g>
    <g fill="silver" text-rendering="geometricPrecision" shape-rendering="geometricPrecision" transform="matrix(1,0,0,1,-660,-547)" stroke="silver">
      <rect x="1257.056" width="59" height="50" y="712.612" clip-path="url(#clipPath2)" stroke="none"/>
    </g>
    <g text-rendering="geometricPrecision" stroke-miterlimit="1.45" shape-rendering="geometricPrecision" transform="matrix(1,0,0,1,-660,-547)" stroke-linecap="butt">
      <rect fill="none" x="1257.056" width="59" height="50" y="712.612" clip-path="url(#clipPath2)"/>
      <text x="1156.8861" font-size="30px" y="694.482" clip-path="url(#clipPath2)" font-family="sans-serif" stroke="none" xml:space="preserve">arrays</text>
    </g>
    <g fill="silver" text-rendering="geometricPrecision" shape-rendering="geometricPrecision" transform="matrix(1,0,0,1,-660,-547)" stroke="silver">
      <rect x="1418.832" width="532" height="344" y="694.504" clip-path="url(#clipPath2)" stroke="none"/>
    </g>
    <g text-rendering="geometricPrecision" stroke-miterlimit="1.45" shape-rendering="geometricPrecision" transform="matrix(1,0,0,1,-660,-547)" stroke-linecap="butt">
      <rect fill="none" x="1418.832" width="532" height="344" y="694.504" clip-path="url(#clipPath2)"/>
      <text x="1433.6873" font-size="30px" y="723.3741" clip-path="url(#clipPath2)" font-family="sans-serif" stroke="none" xml:space="preserve">(</text>
      <text x="1433.6873" font-size="30px" y="753.3741" clip-path="url(#clipPath2)" font-family="sans-serif" stroke="none" xml:space="preserve">  @S %1 = *(this.size)</text>
      <text x="1433.6873" font-size="30px" y="783.3741" clip-path="url(#clipPath2)" font-family="sans-serif" stroke="none" xml:space="preserve">  @S %3 = %1 + 1</text>
      <text x="1433.6873" font-size="30px" y="813.374" clip-path="url(#clipPath2)" font-family="sans-serif" stroke="none" xml:space="preserve">  @S this.ensureCapacityInternal(%3)</text>
      <text x="1433.6873" font-size="30px" y="843.374" clip-path="url(#clipPath2)" font-family="sans-serif" stroke="none" xml:space="preserve">  @S %9 = *(this.elementData)</text>
      <text x="1433.6873" font-size="30px" y="873.374" clip-path="url(#clipPath2)" font-family="sans-serif" stroke="none" xml:space="preserve">  @S %10 = *(this.size)</text>
      <text x="1433.6873" font-size="30px" y="903.374" clip-path="url(#clipPath2)" font-family="sans-serif" stroke="none" xml:space="preserve">  @S %8 = %10 + 1</text>
      <text x="1433.6873" font-size="30px" y="933.3739" clip-path="url(#clipPath2)" font-family="sans-serif" stroke="none" xml:space="preserve">  @S *(this.size) = %8</text>
      <text x="1433.6873" font-size="30px" y="963.3739" clip-path="url(#clipPath2)" font-family="sans-serif" stroke="none" xml:space="preserve">  @S *(%9[%10]) = arg$0</text>
      <text x="1433.6873" font-size="30px" y="993.3739" clip-path="url(#clipPath2)" font-family="sans-serif" stroke="none" xml:space="preserve">  @S &lt;retval&gt; = 1</text>
      <text x="1433.6873" font-size="30px" y="1023.3738" clip-path="url(#clipPath2)" font-family="sans-serif" stroke="none" xml:space="preserve">)</text>
      <text x="1569.2122" font-size="40px" y="678.664" clip-path="url(#clipPath2)" font-family="sans-serif" stroke="none" xml:space="preserve">method code</text>
      <path fill="none" d="M1316.056 867.4706 L1410.832 867.2222" clip-path="url(#clipPath2)"/>
      <path d="M1418.832 867.2012 L1406.819 862.2327 L1409.832 867.2249 L1406.8452 872.2327 Z" clip-path="url(#clipPath2)" stroke="none"/>
      <path fill="none" d="M1950.832 866.504 L2045.608 866.504" clip-path="url(#clipPath2)"/>
      <path d="M2053.6079 866.504 L2041.6079 861.504 L2044.6079 866.504 L2041.6079 871.504 Z" clip-path="url(#clipPath2)" stroke="none"/>
    </g>
  </g>
</svg>
