<?xml version="1.0" encoding="UTF-8"?><svg xmlns="http://www.w3.org/2000/svg" xmlns:xlink="http://www.w3.org/1999/xlink" fill-opacity="1" color-rendering="auto" color-interpolation="auto" text-rendering="auto" stroke="black" stroke-linecap="square" width="891" stroke-miterlimit="10" shape-rendering="auto" stroke-opacity="1" fill="black" stroke-dasharray="none" font-weight="normal" stroke-width="1" height="550" font-family="'Dialog'" font-style="normal" stroke-linejoin="miter" font-size="12px" stroke-dashoffset="0" image-rendering="auto">
  <!--Generated by ySVG 2.5-->
  <defs id="genericDefs"/>
  <g>
    <defs id="defs1">
      <clipPath clipPathUnits="userSpaceOnUse" id="clipPath1">
        <path d="M0 0 L891 0 L891 550 L0 550 L0 0 Z"/>
      </clipPath>
      <clipPath clipPathUnits="userSpaceOnUse" id="clipPath2">
        <path d="M292 161 L1183 161 L1183 711 L292 711 L292 161 Z"/>
      </clipPath>
    </defs>
    <g fill="silver" text-rendering="geometricPrecision" shape-rendering="geometricPrecision" transform="matrix(1,0,0,1,-292,-161)" stroke="silver">
      <rect x="506" width="241" height="50" y="176.5" clip-path="url(#clipPath2)" stroke="none"/>
    </g>
    <g text-rendering="geometricPrecision" stroke-miterlimit="1.45" shape-rendering="geometricPrecision" transform="matrix(1,0,0,1,-292,-161)" stroke-linecap="butt">
      <rect fill="none" x="506" width="241" height="50" y="176.5" clip-path="url(#clipPath2)"/>
      <text x="537.8159" font-size="25px" y="210.1548" clip-path="url(#clipPath2)" font-family="sans-serif" stroke="none" xml:space="preserve">concretization</text>
    </g>
    <g fill="silver" text-rendering="geometricPrecision" shape-rendering="geometricPrecision" transform="matrix(1,0,0,1,-292,-161)" stroke="silver">
      <rect x="486" width="281" height="50" y="277.5" clip-path="url(#clipPath2)" stroke="none"/>
    </g>
    <g text-rendering="geometricPrecision" stroke-miterlimit="1.45" shape-rendering="geometricPrecision" transform="matrix(1,0,0,1,-292,-161)" stroke-linecap="butt">
      <rect fill="none" x="486" width="281" height="50" y="277.5" clip-path="url(#clipPath2)"/>
      <text x="517.7109" font-size="25px" y="311.1548" clip-path="url(#clipPath2)" font-family="sans-serif" stroke="none" xml:space="preserve">setter generation</text>
    </g>
    <g fill="silver" text-rendering="geometricPrecision" shape-rendering="geometricPrecision" transform="matrix(1,0,0,1,-292,-161)" stroke="silver">
      <path d="M426.5 479 L626.5 396 L826.5 479 L626.5 562 Z" fill-rule="evenodd" clip-path="url(#clipPath2)" stroke="none"/>
    </g>
    <g text-rendering="geometricPrecision" stroke-miterlimit="1.45" shape-rendering="geometricPrecision" transform="matrix(1,0,0,1,-292,-161)" stroke-linecap="butt">
      <path fill="none" d="M426.5 479 L626.5 396 L826.5 479 L626.5 562 Z" fill-rule="evenodd" clip-path="url(#clipPath2)"/>
      <text x="466.0874" font-size="25px" y="487.6548" clip-path="url(#clipPath2)" font-family="sans-serif" stroke="none" xml:space="preserve">creatable by constructor?</text>
    </g>
    <g fill="silver" text-rendering="geometricPrecision" shape-rendering="geometricPrecision" transform="matrix(1,0,0,1,-292,-161)" stroke="silver">
      <rect x="909" width="259" height="50" y="454" clip-path="url(#clipPath2)" stroke="none"/>
    </g>
    <g text-rendering="geometricPrecision" stroke-miterlimit="1.45" shape-rendering="geometricPrecision" transform="matrix(1,0,0,1,-292,-161)" stroke-linecap="butt">
      <rect fill="none" x="909" width="259" height="50" y="454" clip-path="url(#clipPath2)"/>
      <text x="940.0625" font-size="25px" y="487.6548" clip-path="url(#clipPath2)" font-family="sans-serif" stroke="none" xml:space="preserve">found call stack</text>
    </g>
    <g fill="silver" text-rendering="geometricPrecision" shape-rendering="geometricPrecision" transform="matrix(1,0,0,1,-292,-161)" stroke="silver">
      <rect x="403" width="405" height="50" y="646" clip-path="url(#clipPath2)" stroke="none"/>
    </g>
    <g text-rendering="geometricPrecision" stroke-miterlimit="1.45" shape-rendering="geometricPrecision" transform="matrix(1,0,0,1,-292,-161)" stroke-linecap="butt">
      <rect fill="none" x="403" width="405" height="50" y="646" clip-path="url(#clipPath2)"/>
      <text x="478.7788" font-size="25px" y="679.6548" clip-path="url(#clipPath2)" font-family="sans-serif" stroke="none" xml:space="preserve">descriptor reduction</text>
    </g>
    <g fill="silver" text-rendering="geometricPrecision" shape-rendering="geometricPrecision" transform="matrix(1,0,0,1,-292,-161)" stroke="silver">
      <rect x="412" width="405" height="50" y="639" clip-path="url(#clipPath2)" stroke="none"/>
    </g>
    <g text-rendering="geometricPrecision" stroke-miterlimit="1.45" shape-rendering="geometricPrecision" transform="matrix(1,0,0,1,-292,-161)" stroke-linecap="butt">
      <rect fill="none" x="412" width="405" height="50" y="639" clip-path="url(#clipPath2)"/>
      <text x="487.7788" font-size="25px" y="672.6548" clip-path="url(#clipPath2)" font-family="sans-serif" stroke="none" xml:space="preserve">descriptor reduction</text>
    </g>
    <g fill="silver" text-rendering="geometricPrecision" shape-rendering="geometricPrecision" transform="matrix(1,0,0,1,-292,-161)" stroke="silver">
      <rect x="424" width="405" height="50" y="630.5" clip-path="url(#clipPath2)" stroke="none"/>
    </g>
    <g text-rendering="geometricPrecision" stroke-miterlimit="1.45" shape-rendering="geometricPrecision" transform="matrix(1,0,0,1,-292,-161)" stroke-linecap="butt">
      <rect fill="none" x="424" width="405" height="50" y="630.5" clip-path="url(#clipPath2)"/>
      <text x="499.7788" font-size="25px" y="664.1548" clip-path="url(#clipPath2)" font-family="sans-serif" stroke="none" xml:space="preserve">descriptor reduction</text>
      <text x="842.3997" font-size="25px" y="477.6548" clip-path="url(#clipPath2)" font-family="sans-serif" stroke="none" xml:space="preserve">yes</text>
      <text x="635.4299" font-size="25px" y="594.1548" clip-path="url(#clipPath2)" font-family="sans-serif" stroke="none" xml:space="preserve">no</text>
      <path fill="none" d="M626.5 226.5 L626.5 269.5" clip-path="url(#clipPath2)"/>
      <path d="M626.5 277.5 L631.5 265.5 L626.5 268.5 L621.5 265.5 Z" clip-path="url(#clipPath2)" stroke="none"/>
      <path fill="none" d="M626.5 327.5 L626.5 387.9635" clip-path="url(#clipPath2)"/>
      <path d="M626.5 395.9635 L631.5 383.9635 L626.5 386.9635 L621.5 383.9635 Z" clip-path="url(#clipPath2)" stroke="none"/>
      <path fill="none" d="M826.49 479 L901 479" clip-path="url(#clipPath2)"/>
      <path d="M909 479 L897 474 L900 479 L897 484 Z" clip-path="url(#clipPath2)" stroke="none"/>
      <path fill="none" d="M626.5 562.0365 L626.5 622.4666" clip-path="url(#clipPath2)"/>
      <path d="M626.5 630.4666 L631.5 618.4666 L626.5 621.4666 L621.5 618.4666 Z" clip-path="url(#clipPath2)" stroke="none"/>
      <path fill="none" d="M424 655.5 L307.9 655.5 L307.9 479 L418.4805 479" clip-path="url(#clipPath2)"/>
      <path d="M426.4805 479 L414.4805 474 L417.4805 479 L414.4805 484 Z" clip-path="url(#clipPath2)" stroke="none"/>
    </g>
  </g>
</svg>
