<?xml version="1.0" encoding="UTF-8"?><svg xmlns="http://www.w3.org/2000/svg" xmlns:xlink="http://www.w3.org/1999/xlink" fill-opacity="1" color-rendering="auto" color-interpolation="auto" text-rendering="auto" stroke="black" stroke-linecap="square" width="2135" stroke-miterlimit="10" shape-rendering="auto" stroke-opacity="1" fill="black" stroke-dasharray="none" font-weight="normal" stroke-width="1" height="819" font-family="'Dialog'" font-style="normal" stroke-linejoin="miter" font-size="12px" stroke-dashoffset="0" image-rendering="auto">
  <!--Generated by ySVG 2.5-->
  <defs id="genericDefs"/>
  <g>
    <defs id="defs1">
      <clipPath clipPathUnits="userSpaceOnUse" id="clipPath1">
        <path d="M0 0 L2135 0 L2135 819 L0 819 L0 0 Z"/>
      </clipPath>
      <clipPath clipPathUnits="userSpaceOnUse" id="clipPath2">
        <path d="M712 598 L2847 598 L2847 1417 L712 1417 L712 598 Z"/>
      </clipPath>
    </defs>
    <g fill="rgb(245,245,245)" text-rendering="geometricPrecision" shape-rendering="geometricPrecision" transform="matrix(1,0,0,1,-712,-598)" stroke="rgb(245,245,245)">
      <rect x="2090.416" y="613.2722" clip-path="url(#clipPath2)" width="741.4063" rx="4" ry="4" height="595.784" stroke="none"/>
    </g>
    <g fill="rgb(235,235,235)" text-rendering="geometricPrecision" shape-rendering="geometricPrecision" transform="matrix(1,0,0,1,-712,-598)" stroke="rgb(235,235,235)">
      <rect x="2090.416" width="741.4063" height="44" y="613.2722" clip-path="url(#clipPath2)" stroke="none"/>
    </g>
    <g font-size="40px" stroke-linecap="butt" transform="matrix(1,0,0,1,-712,-598)" text-rendering="geometricPrecision" font-family="sans-serif" shape-rendering="geometricPrecision" stroke-miterlimit="1.45">
      <text x="2600.9026" xml:space="preserve" y="644.4321" clip-path="url(#clipPath2)" stroke="none">final memory</text>
      <line y2="655.2721" fill="none" x1="2092.416" clip-path="url(#clipPath2)" x2="2829.8223" y1="655.2721"/>
      <rect x="2090.416" y="613.2722" clip-path="url(#clipPath2)" fill="none" width="741.4063" stroke-dasharray="6,2" rx="4" ry="4" height="595.784"/>
    </g>
    <g fill="rgb(204,255,255)" text-rendering="geometricPrecision" shape-rendering="geometricPrecision" transform="matrix(1,0,0,1,-712,-598)" stroke="rgb(204,255,255)">
      <rect x="2116.528" width="59" height="50" y="887.2081" clip-path="url(#clipPath2)" stroke="none"/>
    </g>
    <g text-rendering="geometricPrecision" stroke-miterlimit="1.45" shape-rendering="geometricPrecision" transform="matrix(1,0,0,1,-712,-598)" stroke-linecap="butt">
      <rect fill="none" x="2116.528" width="59" height="50" y="887.2081" clip-path="url(#clipPath2)"/>
      <text x="2127.698" font-size="30px" y="919.0781" clip-path="url(#clipPath2)" font-family="sans-serif" stroke="none" xml:space="preserve">list</text>
    </g>
    <g fill="silver" text-rendering="geometricPrecision" shape-rendering="geometricPrecision" transform="matrix(1,0,0,1,-712,-598)" stroke="silver">
      <rect x="2259.088" width="59" height="50" y="849.2721" clip-path="url(#clipPath2)" stroke="none"/>
    </g>
    <g text-rendering="geometricPrecision" stroke-miterlimit="1.45" shape-rendering="geometricPrecision" transform="matrix(1,0,0,1,-712,-598)" stroke-linecap="butt">
      <rect fill="none" x="2259.088" width="59" height="50" y="849.2721" clip-path="url(#clipPath2)"/>
    </g>
    <g fill="silver" text-rendering="geometricPrecision" shape-rendering="geometricPrecision" transform="matrix(1,0,0,1,-712,-598)" stroke="silver">
      <rect x="2318.088" width="59" height="50" y="849.2721" clip-path="url(#clipPath2)" stroke="none"/>
    </g>
    <g text-rendering="geometricPrecision" stroke-miterlimit="1.45" shape-rendering="geometricPrecision" transform="matrix(1,0,0,1,-712,-598)" stroke-linecap="butt">
      <rect fill="none" x="2318.088" width="59" height="50" y="849.2721" clip-path="url(#clipPath2)"/>
    </g>
    <g fill="rgb(204,255,255)" text-rendering="geometricPrecision" shape-rendering="geometricPrecision" transform="matrix(1,0,0,1,-712,-598)" stroke="rgb(204,255,255)">
      <rect x="2377.088" width="59" height="50" y="849.2721" clip-path="url(#clipPath2)" stroke="none"/>
    </g>
    <g text-rendering="geometricPrecision" stroke-miterlimit="1.45" shape-rendering="geometricPrecision" transform="matrix(1,0,0,1,-712,-598)" stroke-linecap="butt">
      <rect fill="none" x="2377.088" width="59" height="50" y="849.2721" clip-path="url(#clipPath2)"/>
      <text x="2398.248" font-size="30px" y="881.1421" clip-path="url(#clipPath2)" font-family="sans-serif" stroke="none" xml:space="preserve">2</text>
    </g>
    <g fill="silver" text-rendering="geometricPrecision" shape-rendering="geometricPrecision" transform="matrix(1,0,0,1,-712,-598)" stroke="silver">
      <rect x="2436.088" width="59" height="50" y="849.2721" clip-path="url(#clipPath2)" stroke="none"/>
    </g>
    <g text-rendering="geometricPrecision" stroke-miterlimit="1.45" shape-rendering="geometricPrecision" transform="matrix(1,0,0,1,-712,-598)" stroke-linecap="butt">
      <rect fill="none" x="2436.088" width="59" height="50" y="849.2721" clip-path="url(#clipPath2)"/>
    </g>
    <g fill="silver" text-rendering="geometricPrecision" shape-rendering="geometricPrecision" transform="matrix(1,0,0,1,-712,-598)" stroke="silver">
      <rect x="2256.504" width="59" height="50" y="722.2721" clip-path="url(#clipPath2)" stroke="none"/>
    </g>
    <g text-rendering="geometricPrecision" stroke-miterlimit="1.45" shape-rendering="geometricPrecision" transform="matrix(1,0,0,1,-712,-598)" stroke-linecap="butt">
      <rect fill="none" x="2256.504" width="59" height="50" y="722.2721" clip-path="url(#clipPath2)"/>
    </g>
    <g fill="silver" text-rendering="geometricPrecision" shape-rendering="geometricPrecision" transform="matrix(1,0,0,1,-712,-598)" stroke="silver">
      <rect x="2315.504" width="59" height="50" y="722.2721" clip-path="url(#clipPath2)" stroke="none"/>
    </g>
    <g text-rendering="geometricPrecision" stroke-miterlimit="1.45" shape-rendering="geometricPrecision" transform="matrix(1,0,0,1,-712,-598)" stroke-linecap="butt">
      <rect fill="none" x="2315.504" width="59" height="50" y="722.2721" clip-path="url(#clipPath2)"/>
    </g>
    <g fill="rgb(204,255,255)" text-rendering="geometricPrecision" shape-rendering="geometricPrecision" transform="matrix(1,0,0,1,-712,-598)" stroke="rgb(204,255,255)">
      <rect x="2374.504" width="59" height="50" y="722.2721" clip-path="url(#clipPath2)" stroke="none"/>
    </g>
    <g text-rendering="geometricPrecision" stroke-miterlimit="1.45" shape-rendering="geometricPrecision" transform="matrix(1,0,0,1,-712,-598)" stroke-linecap="butt">
      <rect fill="none" x="2374.504" width="59" height="50" y="722.2721" clip-path="url(#clipPath2)"/>
    </g>
    <g fill="silver" text-rendering="geometricPrecision" shape-rendering="geometricPrecision" transform="matrix(1,0,0,1,-712,-598)" stroke="silver">
      <rect x="2433.504" width="59" height="50" y="722.2721" clip-path="url(#clipPath2)" stroke="none"/>
    </g>
    <g text-rendering="geometricPrecision" stroke-miterlimit="1.45" shape-rendering="geometricPrecision" transform="matrix(1,0,0,1,-712,-598)" stroke-linecap="butt">
      <rect fill="none" x="2433.504" width="59" height="50" y="722.2721" clip-path="url(#clipPath2)"/>
    </g>
    <g fill="silver" text-rendering="geometricPrecision" shape-rendering="geometricPrecision" transform="matrix(1,0,0,1,-712,-598)" stroke="silver">
      <rect x="2262.672" width="59" height="50" y="976.2721" clip-path="url(#clipPath2)" stroke="none"/>
    </g>
    <g text-rendering="geometricPrecision" stroke-miterlimit="1.45" shape-rendering="geometricPrecision" transform="matrix(1,0,0,1,-712,-598)" stroke-linecap="butt">
      <rect fill="none" x="2262.672" width="59" height="50" y="976.2721" clip-path="url(#clipPath2)"/>
    </g>
    <g fill="rgb(255,102,0)" text-rendering="geometricPrecision" shape-rendering="geometricPrecision" transform="matrix(1,0,0,1,-712,-598)" stroke="rgb(255,102,0)">
      <rect x="2321.672" width="59" height="50" y="976.2721" clip-path="url(#clipPath2)" stroke="none"/>
    </g>
    <g text-rendering="geometricPrecision" stroke-miterlimit="1.45" shape-rendering="geometricPrecision" transform="matrix(1,0,0,1,-712,-598)" stroke-linecap="butt">
      <rect fill="none" x="2321.672" width="59" height="50" y="976.2721" clip-path="url(#clipPath2)"/>
      <text x="2334.4919" font-size="30px" y="1008.1421" clip-path="url(#clipPath2)" font-family="sans-serif" stroke="none" xml:space="preserve">10</text>
    </g>
    <g fill="yellow" text-rendering="geometricPrecision" shape-rendering="geometricPrecision" transform="matrix(1,0,0,1,-712,-598)" stroke="yellow">
      <rect x="2439.672" width="59" height="50" y="976.2721" clip-path="url(#clipPath2)" stroke="none"/>
    </g>
    <g text-rendering="geometricPrecision" stroke-miterlimit="1.45" shape-rendering="geometricPrecision" transform="matrix(1,0,0,1,-712,-598)" stroke-linecap="butt">
      <rect fill="none" x="2439.672" width="59" height="50" y="976.2721" clip-path="url(#clipPath2)"/>
      <text x="2460.832" font-size="30px" y="1008.1421" clip-path="url(#clipPath2)" font-family="sans-serif" stroke="none" xml:space="preserve">0</text>
    </g>
    <g fill="silver" text-rendering="geometricPrecision" shape-rendering="geometricPrecision" transform="matrix(1,0,0,1,-712,-598)" stroke="silver">
      <rect x="2380.672" width="59" height="50" y="976.2721" clip-path="url(#clipPath2)" stroke="none"/>
    </g>
    <g text-rendering="geometricPrecision" stroke-miterlimit="1.45" shape-rendering="geometricPrecision" transform="matrix(1,0,0,1,-712,-598)" stroke-linecap="butt">
      <rect fill="none" x="2380.672" width="59" height="50" y="976.2721" clip-path="url(#clipPath2)"/>
    </g>
    <g fill="silver" text-rendering="geometricPrecision" shape-rendering="geometricPrecision" transform="matrix(1,0,0,1,-712,-598)" stroke="silver">
      <rect x="2262.672" width="59" height="50" y="1094.0561" clip-path="url(#clipPath2)" stroke="none"/>
    </g>
    <g text-rendering="geometricPrecision" stroke-miterlimit="1.45" shape-rendering="geometricPrecision" transform="matrix(1,0,0,1,-712,-598)" stroke-linecap="butt">
      <rect fill="none" x="2262.672" width="59" height="50" y="1094.0561" clip-path="url(#clipPath2)"/>
    </g>
    <g fill="rgb(255,102,0)" text-rendering="geometricPrecision" shape-rendering="geometricPrecision" transform="matrix(1,0,0,1,-712,-598)" stroke="rgb(255,102,0)">
      <rect x="2321.672" width="59" height="50" y="1094.0561" clip-path="url(#clipPath2)" stroke="none"/>
    </g>
    <g text-rendering="geometricPrecision" stroke-miterlimit="1.45" shape-rendering="geometricPrecision" transform="matrix(1,0,0,1,-712,-598)" stroke-linecap="butt">
      <rect fill="none" x="2321.672" width="59" height="50" y="1094.0561" clip-path="url(#clipPath2)"/>
      <text x="2342.832" font-size="30px" y="1125.9261" clip-path="url(#clipPath2)" font-family="sans-serif" stroke="none" xml:space="preserve">0</text>
    </g>
    <g fill="yellow" text-rendering="geometricPrecision" shape-rendering="geometricPrecision" transform="matrix(1,0,0,1,-712,-598)" stroke="yellow">
      <rect x="2439.672" width="59" height="50" y="1094.0561" clip-path="url(#clipPath2)" stroke="none"/>
    </g>
    <g text-rendering="geometricPrecision" stroke-miterlimit="1.45" shape-rendering="geometricPrecision" transform="matrix(1,0,0,1,-712,-598)" stroke-linecap="butt">
      <rect fill="none" x="2439.672" width="59" height="50" y="1094.0561" clip-path="url(#clipPath2)"/>
      <text x="2452.4919" font-size="30px" y="1125.9261" clip-path="url(#clipPath2)" font-family="sans-serif" stroke="none" xml:space="preserve">11</text>
    </g>
    <g fill="silver" text-rendering="geometricPrecision" shape-rendering="geometricPrecision" transform="matrix(1,0,0,1,-712,-598)" stroke="silver">
      <rect x="2380.672" width="59" height="50" y="1094.0561" clip-path="url(#clipPath2)" stroke="none"/>
    </g>
    <g text-rendering="geometricPrecision" stroke-miterlimit="1.45" shape-rendering="geometricPrecision" transform="matrix(1,0,0,1,-712,-598)" stroke-linecap="butt">
      <rect fill="none" x="2380.672" width="59" height="50" y="1094.0561" clip-path="url(#clipPath2)"/>
      <text x="2232.5532" font-size="30px" y="831.1421" clip-path="url(#clipPath2)" font-family="sans-serif" stroke="none" xml:space="preserve">java/util/ArrayList.size</text>
      <text x="2174.1882" font-size="30px" y="704.1421" clip-path="url(#clipPath2)" font-family="sans-serif" stroke="none" xml:space="preserve">java/util/ArrayList.elementData</text>
      <text x="2184.4321" font-size="30px" y="958.1421" clip-path="url(#clipPath2)" font-family="sans-serif" stroke="none" xml:space="preserve">example/ListExample$Point.x</text>
      <text x="2183.4321" font-size="30px" y="1175.9261" clip-path="url(#clipPath2)" font-family="sans-serif" stroke="none" xml:space="preserve">example/ListExample$Point.y</text>
    </g>
    <g fill="rgb(0,204,255)" text-rendering="geometricPrecision" shape-rendering="geometricPrecision" transform="matrix(1,0,0,1,-712,-598)" stroke="rgb(0,204,255)">
      <rect x="2576.832" width="59" height="50" y="772.2721" clip-path="url(#clipPath2)" stroke="none"/>
    </g>
    <g text-rendering="geometricPrecision" stroke-miterlimit="1.45" shape-rendering="geometricPrecision" transform="matrix(1,0,0,1,-712,-598)" stroke-linecap="butt">
      <rect fill="none" x="2576.832" width="59" height="50" y="772.2721" clip-path="url(#clipPath2)"/>
      <text x="2589.6521" font-size="30px" y="804.1421" clip-path="url(#clipPath2)" font-family="sans-serif" stroke="none" xml:space="preserve">a1</text>
    </g>
    <g fill="silver" text-rendering="geometricPrecision" shape-rendering="geometricPrecision" transform="matrix(1,0,0,1,-712,-598)" stroke="silver">
      <rect x="2635.832" width="59" height="50" y="772.2721" clip-path="url(#clipPath2)" stroke="none"/>
    </g>
    <g text-rendering="geometricPrecision" stroke-miterlimit="1.45" shape-rendering="geometricPrecision" transform="matrix(1,0,0,1,-712,-598)" stroke-linecap="butt">
      <rect fill="none" x="2635.832" width="59" height="50" y="772.2721" clip-path="url(#clipPath2)"/>
    </g>
    <g fill="silver" text-rendering="geometricPrecision" shape-rendering="geometricPrecision" transform="matrix(1,0,0,1,-712,-598)" stroke="silver">
      <rect x="2694.832" width="59" height="50" y="772.2721" clip-path="url(#clipPath2)" stroke="none"/>
    </g>
    <g text-rendering="geometricPrecision" stroke-miterlimit="1.45" shape-rendering="geometricPrecision" transform="matrix(1,0,0,1,-712,-598)" stroke-linecap="butt">
      <rect fill="none" x="2694.832" width="59" height="50" y="772.2721" clip-path="url(#clipPath2)"/>
    </g>
    <g fill="silver" text-rendering="geometricPrecision" shape-rendering="geometricPrecision" transform="matrix(1,0,0,1,-712,-598)" stroke="silver">
      <rect x="2753.832" width="59" height="50" y="772.2721" clip-path="url(#clipPath2)" stroke="none"/>
    </g>
    <g text-rendering="geometricPrecision" stroke-miterlimit="1.45" shape-rendering="geometricPrecision" transform="matrix(1,0,0,1,-712,-598)" stroke-linecap="butt">
      <rect fill="none" x="2753.832" width="59" height="50" y="772.2721" clip-path="url(#clipPath2)"/>
      <text x="2653.6621" font-size="30px" y="754.1421" clip-path="url(#clipPath2)" font-family="sans-serif" stroke="none" xml:space="preserve">arrays</text>
    </g>
    <g fill="rgb(0,204,255)" text-rendering="geometricPrecision" shape-rendering="geometricPrecision" transform="matrix(1,0,0,1,-712,-598)" stroke="rgb(0,204,255)">
      <rect x="2694.832" width="59" height="50" y="944.0561" clip-path="url(#clipPath2)" stroke="none"/>
    </g>
    <g text-rendering="geometricPrecision" stroke-miterlimit="1.45" shape-rendering="geometricPrecision" transform="matrix(1,0,0,1,-712,-598)" stroke-linecap="butt">
      <rect fill="none" x="2694.832" width="59" height="50" y="944.0561" clip-path="url(#clipPath2)"/>
      <text x="2707.6521" font-size="30px" y="975.9261" clip-path="url(#clipPath2)" font-family="sans-serif" stroke="none" xml:space="preserve">a1</text>
    </g>
    <g fill="rgb(255,102,0)" text-rendering="geometricPrecision" shape-rendering="geometricPrecision" transform="matrix(1,0,0,1,-712,-598)" stroke="rgb(255,102,0)">
      <rect x="2694.832" width="59" height="50" y="994.0561" clip-path="url(#clipPath2)" stroke="none"/>
    </g>
    <g text-rendering="geometricPrecision" stroke-miterlimit="1.45" shape-rendering="geometricPrecision" transform="matrix(1,0,0,1,-712,-598)" stroke-linecap="butt">
      <rect fill="none" x="2694.832" width="59" height="50" y="994.0561" clip-path="url(#clipPath2)"/>
      <text x="2707.6521" font-size="30px" y="1025.9261" clip-path="url(#clipPath2)" font-family="sans-serif" stroke="none" xml:space="preserve">p1</text>
    </g>
    <g fill="rgb(204,255,255)" text-rendering="geometricPrecision" shape-rendering="geometricPrecision" transform="matrix(1,0,0,1,-712,-598)" stroke="rgb(204,255,255)">
      <rect x="2694.832" width="59" height="50" y="1044.0561" clip-path="url(#clipPath2)" stroke="none"/>
    </g>
    <g text-rendering="geometricPrecision" stroke-miterlimit="1.45" shape-rendering="geometricPrecision" transform="matrix(1,0,0,1,-712,-598)" stroke-linecap="butt">
      <rect fill="none" x="2694.832" width="59" height="50" y="1044.0561" clip-path="url(#clipPath2)"/>
      <text x="2706.002" font-size="30px" y="1075.9261" clip-path="url(#clipPath2)" font-family="sans-serif" stroke="none" xml:space="preserve">list</text>
    </g>
    <g fill="yellow" text-rendering="geometricPrecision" shape-rendering="geometricPrecision" transform="matrix(1,0,0,1,-712,-598)" stroke="yellow">
      <rect x="2694.832" width="59" height="50" y="1094.0561" clip-path="url(#clipPath2)" stroke="none"/>
    </g>
    <g text-rendering="geometricPrecision" stroke-miterlimit="1.45" shape-rendering="geometricPrecision" transform="matrix(1,0,0,1,-712,-598)" stroke-linecap="butt">
      <rect fill="none" x="2694.832" width="59" height="50" y="1094.0561" clip-path="url(#clipPath2)"/>
      <text x="2707.6521" font-size="30px" y="1125.9261" clip-path="url(#clipPath2)" font-family="sans-serif" stroke="none" xml:space="preserve">p2</text>
      <text x="2688.4819" font-size="30px" y="873.3661" clip-path="url(#clipPath2)" font-family="sans-serif" stroke="none" xml:space="preserve">types</text>
    </g>
    <g fill="rgb(255,102,0)" text-rendering="geometricPrecision" shape-rendering="geometricPrecision" transform="matrix(1,0,0,1,-712,-598)" stroke="rgb(255,102,0)">
      <rect x="2576.832" width="59" height="50" y="902.3601" clip-path="url(#clipPath2)" stroke="none"/>
    </g>
    <g text-rendering="geometricPrecision" stroke-miterlimit="1.45" shape-rendering="geometricPrecision" transform="matrix(1,0,0,1,-712,-598)" stroke-linecap="butt">
      <rect fill="none" x="2576.832" width="59" height="50" y="902.3601" clip-path="url(#clipPath2)"/>
      <text x="2589.6521" font-size="30px" y="934.2301" clip-path="url(#clipPath2)" font-family="sans-serif" stroke="none" xml:space="preserve">p1</text>
    </g>
    <g fill="yellow" text-rendering="geometricPrecision" shape-rendering="geometricPrecision" transform="matrix(1,0,0,1,-712,-598)" stroke="yellow">
      <rect x="2576.832" width="59" height="50" y="952.3601" clip-path="url(#clipPath2)" stroke="none"/>
    </g>
    <g text-rendering="geometricPrecision" stroke-miterlimit="1.45" shape-rendering="geometricPrecision" transform="matrix(1,0,0,1,-712,-598)" stroke-linecap="butt">
      <rect fill="none" x="2576.832" width="59" height="50" y="952.3601" clip-path="url(#clipPath2)"/>
      <text x="2589.6521" font-size="30px" y="984.2301" clip-path="url(#clipPath2)" font-family="sans-serif" stroke="none" xml:space="preserve">p2</text>
    </g>
    <g fill="silver" text-rendering="geometricPrecision" shape-rendering="geometricPrecision" transform="matrix(1,0,0,1,-712,-598)" stroke="silver">
      <rect x="2694.832" width="59" height="50" y="894.0561" clip-path="url(#clipPath2)" stroke="none"/>
    </g>
    <g text-rendering="geometricPrecision" stroke-miterlimit="1.45" shape-rendering="geometricPrecision" transform="matrix(1,0,0,1,-712,-598)" stroke-linecap="butt">
      <rect fill="none" x="2694.832" width="59" height="50" y="894.0561" clip-path="url(#clipPath2)"/>
    </g>
    <g fill="silver" text-rendering="geometricPrecision" shape-rendering="geometricPrecision" transform="matrix(1,0,0,1,-712,-598)" stroke="silver">
      <rect x="2694.832" width="59" height="50" y="1144.0561" clip-path="url(#clipPath2)" stroke="none"/>
    </g>
    <g text-rendering="geometricPrecision" stroke-miterlimit="1.45" shape-rendering="geometricPrecision" transform="matrix(1,0,0,1,-712,-598)" stroke-linecap="butt">
      <rect fill="none" x="2694.832" width="59" height="50" y="1144.0561" clip-path="url(#clipPath2)"/>
      <path fill="none" d="M2175.5281 912.2081 L2387.0161 912.2081 L2390.022 906.3817" clip-path="url(#clipPath2)"/>
      <path d="M2393.6899 899.2721 L2383.7444 907.644 L2389.5635 907.2704 L2392.6313 912.2289 Z" clip-path="url(#clipPath2)" stroke="none"/>
      <path fill="none" d="M2175.5281 912.2081 L2195.5281 912.2081 L2195.5281 793.4241 L2388.04 793.4241 L2392.7412 779.8326" clip-path="url(#clipPath2)"/>
      <path d="M2395.3564 772.2721 L2386.7083 781.9783 L2392.4143 780.7776 L2396.1589 785.2473 Z" clip-path="url(#clipPath2)" stroke="none"/>
      <path fill="none" d="M2404.0039 772.2721 L2404.0039 797.5201 L2564.3479 797.5201 L2568.832 797.4937" clip-path="url(#clipPath2)"/>
      <path d="M2576.8318 797.4464 L2564.8025 792.5174 L2567.832 797.4996 L2564.8616 802.5172 Z" clip-path="url(#clipPath2)" stroke="none"/>
      <path fill="none" d="M2606.332 822.2721 L2606.332 894.3601" clip-path="url(#clipPath2)"/>
      <path d="M2606.332 902.3601 L2611.332 890.3601 L2606.332 893.3601 L2601.332 890.3601 Z" clip-path="url(#clipPath2)" stroke="none"/>
      <path fill="none" d="M2576.832 927.3601 L2189.896 927.3601 L2189.896 1060.6881 L2351.1721 1060.6881 L2351.1721 1034.2721" clip-path="url(#clipPath2)"/>
      <path d="M2351.1721 1026.2721 L2346.1721 1038.2721 L2351.1721 1035.2721 L2356.1721 1038.2721 Z" clip-path="url(#clipPath2)" stroke="none"/>
      <path fill="none" d="M2576.832 927.3601 L2189.896 927.3601 L2189.896 1061.7122 L2351.1721 1061.7122 L2351.1721 1086.0562" clip-path="url(#clipPath2)"/>
      <path d="M2351.1721 1094.0562 L2356.1721 1082.0562 L2351.1721 1085.0562 L2346.1721 1082.0562 Z" clip-path="url(#clipPath2)" stroke="none"/>
      <path fill="none" d="M2576.832 977.3601 L2542.1521 977.3601 L2542.1521 1062.2241 L2469.1721 1062.2241 L2469.1721 1034.2721" clip-path="url(#clipPath2)"/>
      <path d="M2469.1721 1026.2721 L2464.1721 1038.2721 L2469.1721 1035.2721 L2474.1721 1038.2721 Z" clip-path="url(#clipPath2)" stroke="none"/>
      <path fill="none" d="M2576.832 977.3601 L2542.1521 977.3601 L2542.1521 1062.2241 L2469.1721 1062.2241 L2469.1721 1086.0562" clip-path="url(#clipPath2)"/>
      <path d="M2469.1721 1094.0562 L2474.1721 1082.0562 L2469.1721 1085.0562 L2464.1721 1082.0562 Z" clip-path="url(#clipPath2)" stroke="none"/>
    </g>
    <g fill="rgb(245,245,245)" text-rendering="geometricPrecision" shape-rendering="geometricPrecision" transform="matrix(1,0,0,1,-712,-598)" stroke="rgb(245,245,245)">
      <rect x="727.872" y="619.3161" clip-path="url(#clipPath2)" width="668.504" rx="4" ry="4" height="595.784" stroke="none"/>
      <rect x="727.872" y="619.3161" clip-path="url(#clipPath2)" fill="rgb(235,235,235)" width="668.504" height="44" stroke="none"/>
    </g>
    <g font-size="40px" stroke-linecap="butt" transform="matrix(1,0,0,1,-712,-598)" text-rendering="geometricPrecision" font-family="sans-serif" shape-rendering="geometricPrecision" stroke-miterlimit="1.45">
      <text x="1147.6963" xml:space="preserve" y="650.4761" clip-path="url(#clipPath2)" stroke="none">initial memory</text>
      <line y2="661.3161" fill="none" x1="729.872" clip-path="url(#clipPath2)" x2="1394.376" y1="661.3161"/>
      <rect x="727.872" y="619.3161" clip-path="url(#clipPath2)" fill="none" width="668.504" stroke-dasharray="6,2" rx="4" ry="4" height="595.784"/>
    </g>
    <g fill="rgb(204,255,255)" text-rendering="geometricPrecision" shape-rendering="geometricPrecision" transform="matrix(1,0,0,1,-712,-598)" stroke="rgb(204,255,255)">
      <rect x="742.872" width="59" height="50" y="888.2521" clip-path="url(#clipPath2)" stroke="none"/>
    </g>
    <g text-rendering="geometricPrecision" stroke-miterlimit="1.45" shape-rendering="geometricPrecision" transform="matrix(1,0,0,1,-712,-598)" stroke-linecap="butt">
      <rect fill="none" x="742.872" width="59" height="50" y="888.2521" clip-path="url(#clipPath2)"/>
      <text x="754.042" font-size="30px" y="920.1221" clip-path="url(#clipPath2)" font-family="sans-serif" stroke="none" xml:space="preserve">list</text>
    </g>
    <g fill="silver" text-rendering="geometricPrecision" shape-rendering="geometricPrecision" transform="matrix(1,0,0,1,-712,-598)" stroke="silver">
      <rect x="862.632" width="59" height="50" y="855.3161" clip-path="url(#clipPath2)" stroke="none"/>
    </g>
    <g text-rendering="geometricPrecision" stroke-miterlimit="1.45" shape-rendering="geometricPrecision" transform="matrix(1,0,0,1,-712,-598)" stroke-linecap="butt">
      <rect fill="none" x="862.632" width="59" height="50" y="855.3161" clip-path="url(#clipPath2)"/>
    </g>
    <g fill="silver" text-rendering="geometricPrecision" shape-rendering="geometricPrecision" transform="matrix(1,0,0,1,-712,-598)" stroke="silver">
      <rect x="921.632" width="59" height="50" y="855.3161" clip-path="url(#clipPath2)" stroke="none"/>
    </g>
    <g text-rendering="geometricPrecision" stroke-miterlimit="1.45" shape-rendering="geometricPrecision" transform="matrix(1,0,0,1,-712,-598)" stroke-linecap="butt">
      <rect fill="none" x="921.632" width="59" height="50" y="855.3161" clip-path="url(#clipPath2)"/>
    </g>
    <g fill="rgb(204,255,255)" text-rendering="geometricPrecision" shape-rendering="geometricPrecision" transform="matrix(1,0,0,1,-712,-598)" stroke="rgb(204,255,255)">
      <rect x="980.632" width="59" height="50" y="855.3161" clip-path="url(#clipPath2)" stroke="none"/>
    </g>
    <g text-rendering="geometricPrecision" stroke-miterlimit="1.45" shape-rendering="geometricPrecision" transform="matrix(1,0,0,1,-712,-598)" stroke-linecap="butt">
      <rect fill="none" x="980.632" width="59" height="50" y="855.3161" clip-path="url(#clipPath2)"/>
      <text x="1001.792" font-size="30px" y="887.1861" clip-path="url(#clipPath2)" font-family="sans-serif" stroke="none" xml:space="preserve">2</text>
    </g>
    <g fill="silver" text-rendering="geometricPrecision" shape-rendering="geometricPrecision" transform="matrix(1,0,0,1,-712,-598)" stroke="silver">
      <rect x="1039.632" width="59" height="50" y="855.3161" clip-path="url(#clipPath2)" stroke="none"/>
    </g>
    <g text-rendering="geometricPrecision" stroke-miterlimit="1.45" shape-rendering="geometricPrecision" transform="matrix(1,0,0,1,-712,-598)" stroke-linecap="butt">
      <rect fill="none" x="1039.632" width="59" height="50" y="855.3161" clip-path="url(#clipPath2)"/>
    </g>
    <g fill="silver" text-rendering="geometricPrecision" shape-rendering="geometricPrecision" transform="matrix(1,0,0,1,-712,-598)" stroke="silver">
      <rect x="860.048" width="59" height="50" y="728.3161" clip-path="url(#clipPath2)" stroke="none"/>
    </g>
    <g text-rendering="geometricPrecision" stroke-miterlimit="1.45" shape-rendering="geometricPrecision" transform="matrix(1,0,0,1,-712,-598)" stroke-linecap="butt">
      <rect fill="none" x="860.048" width="59" height="50" y="728.3161" clip-path="url(#clipPath2)"/>
    </g>
    <g fill="silver" text-rendering="geometricPrecision" shape-rendering="geometricPrecision" transform="matrix(1,0,0,1,-712,-598)" stroke="silver">
      <rect x="919.048" width="59" height="50" y="728.3161" clip-path="url(#clipPath2)" stroke="none"/>
    </g>
    <g text-rendering="geometricPrecision" stroke-miterlimit="1.45" shape-rendering="geometricPrecision" transform="matrix(1,0,0,1,-712,-598)" stroke-linecap="butt">
      <rect fill="none" x="919.048" width="59" height="50" y="728.3161" clip-path="url(#clipPath2)"/>
    </g>
    <g fill="rgb(204,255,255)" text-rendering="geometricPrecision" shape-rendering="geometricPrecision" transform="matrix(1,0,0,1,-712,-598)" stroke="rgb(204,255,255)">
      <rect x="978.048" width="59" height="50" y="728.3161" clip-path="url(#clipPath2)" stroke="none"/>
    </g>
    <g text-rendering="geometricPrecision" stroke-miterlimit="1.45" shape-rendering="geometricPrecision" transform="matrix(1,0,0,1,-712,-598)" stroke-linecap="butt">
      <rect fill="none" x="978.048" width="59" height="50" y="728.3161" clip-path="url(#clipPath2)"/>
      <text x="984.208" font-size="30px" y="760.1861" clip-path="url(#clipPath2)" font-family="sans-serif" stroke="none" xml:space="preserve">null</text>
    </g>
    <g fill="silver" text-rendering="geometricPrecision" shape-rendering="geometricPrecision" transform="matrix(1,0,0,1,-712,-598)" stroke="silver">
      <rect x="1037.048" width="59" height="50" y="728.3161" clip-path="url(#clipPath2)" stroke="none"/>
    </g>
    <g text-rendering="geometricPrecision" stroke-miterlimit="1.45" shape-rendering="geometricPrecision" transform="matrix(1,0,0,1,-712,-598)" stroke-linecap="butt">
      <rect fill="none" x="1037.048" width="59" height="50" y="728.3161" clip-path="url(#clipPath2)"/>
    </g>
    <g fill="silver" text-rendering="geometricPrecision" shape-rendering="geometricPrecision" transform="matrix(1,0,0,1,-712,-598)" stroke="silver">
      <rect x="866.216" width="59" height="50" y="982.3161" clip-path="url(#clipPath2)" stroke="none"/>
    </g>
    <g text-rendering="geometricPrecision" stroke-miterlimit="1.45" shape-rendering="geometricPrecision" transform="matrix(1,0,0,1,-712,-598)" stroke-linecap="butt">
      <rect fill="none" x="866.216" width="59" height="50" y="982.3161" clip-path="url(#clipPath2)"/>
    </g>
    <g fill="silver" text-rendering="geometricPrecision" shape-rendering="geometricPrecision" transform="matrix(1,0,0,1,-712,-598)" stroke="silver">
      <rect x="925.216" width="59" height="50" y="982.3161" clip-path="url(#clipPath2)" stroke="none"/>
    </g>
    <g text-rendering="geometricPrecision" stroke-miterlimit="1.45" shape-rendering="geometricPrecision" transform="matrix(1,0,0,1,-712,-598)" stroke-linecap="butt">
      <rect fill="none" x="925.216" width="59" height="50" y="982.3161" clip-path="url(#clipPath2)"/>
    </g>
    <g fill="silver" text-rendering="geometricPrecision" shape-rendering="geometricPrecision" transform="matrix(1,0,0,1,-712,-598)" stroke="silver">
      <rect x="1043.216" width="59" height="50" y="982.3161" clip-path="url(#clipPath2)" stroke="none"/>
    </g>
    <g text-rendering="geometricPrecision" stroke-miterlimit="1.45" shape-rendering="geometricPrecision" transform="matrix(1,0,0,1,-712,-598)" stroke-linecap="butt">
      <rect fill="none" x="1043.216" width="59" height="50" y="982.3161" clip-path="url(#clipPath2)"/>
    </g>
    <g fill="silver" text-rendering="geometricPrecision" shape-rendering="geometricPrecision" transform="matrix(1,0,0,1,-712,-598)" stroke="silver">
      <rect x="984.216" width="59" height="50" y="982.3161" clip-path="url(#clipPath2)" stroke="none"/>
    </g>
    <g text-rendering="geometricPrecision" stroke-miterlimit="1.45" shape-rendering="geometricPrecision" transform="matrix(1,0,0,1,-712,-598)" stroke-linecap="butt">
      <rect fill="none" x="984.216" width="59" height="50" y="982.3161" clip-path="url(#clipPath2)"/>
    </g>
    <g fill="silver" text-rendering="geometricPrecision" shape-rendering="geometricPrecision" transform="matrix(1,0,0,1,-712,-598)" stroke="silver">
      <rect x="866.216" width="59" height="50" y="1100.1001" clip-path="url(#clipPath2)" stroke="none"/>
    </g>
    <g text-rendering="geometricPrecision" stroke-miterlimit="1.45" shape-rendering="geometricPrecision" transform="matrix(1,0,0,1,-712,-598)" stroke-linecap="butt">
      <rect fill="none" x="866.216" width="59" height="50" y="1100.1001" clip-path="url(#clipPath2)"/>
    </g>
    <g fill="silver" text-rendering="geometricPrecision" shape-rendering="geometricPrecision" transform="matrix(1,0,0,1,-712,-598)" stroke="silver">
      <rect x="925.216" width="59" height="50" y="1100.1001" clip-path="url(#clipPath2)" stroke="none"/>
    </g>
    <g text-rendering="geometricPrecision" stroke-miterlimit="1.45" shape-rendering="geometricPrecision" transform="matrix(1,0,0,1,-712,-598)" stroke-linecap="butt">
      <rect fill="none" x="925.216" width="59" height="50" y="1100.1001" clip-path="url(#clipPath2)"/>
    </g>
    <g fill="silver" text-rendering="geometricPrecision" shape-rendering="geometricPrecision" transform="matrix(1,0,0,1,-712,-598)" stroke="silver">
      <rect x="1043.216" width="59" height="50" y="1100.1001" clip-path="url(#clipPath2)" stroke="none"/>
    </g>
    <g text-rendering="geometricPrecision" stroke-miterlimit="1.45" shape-rendering="geometricPrecision" transform="matrix(1,0,0,1,-712,-598)" stroke-linecap="butt">
      <rect fill="none" x="1043.216" width="59" height="50" y="1100.1001" clip-path="url(#clipPath2)"/>
    </g>
    <g fill="silver" text-rendering="geometricPrecision" shape-rendering="geometricPrecision" transform="matrix(1,0,0,1,-712,-598)" stroke="silver">
      <rect x="984.216" width="59" height="50" y="1100.1001" clip-path="url(#clipPath2)" stroke="none"/>
    </g>
    <g text-rendering="geometricPrecision" stroke-miterlimit="1.45" shape-rendering="geometricPrecision" transform="matrix(1,0,0,1,-712,-598)" stroke-linecap="butt">
      <rect fill="none" x="984.216" width="59" height="50" y="1100.1001" clip-path="url(#clipPath2)"/>
      <text x="836.0972" font-size="30px" y="837.1861" clip-path="url(#clipPath2)" font-family="sans-serif" stroke="none" xml:space="preserve">java/util/ArrayList.size</text>
      <text x="777.7322" font-size="30px" y="710.1861" clip-path="url(#clipPath2)" font-family="sans-serif" stroke="none" xml:space="preserve">java/util/ArrayList.elementData</text>
      <text x="787.9762" font-size="30px" y="964.1861" clip-path="url(#clipPath2)" font-family="sans-serif" stroke="none" xml:space="preserve">example/ListExample$Point.x</text>
      <text x="786.9762" font-size="30px" y="1181.9701" clip-path="url(#clipPath2)" font-family="sans-serif" stroke="none" xml:space="preserve">example/ListExample$Point.y</text>
    </g>
    <g fill="silver" text-rendering="geometricPrecision" shape-rendering="geometricPrecision" transform="matrix(1,0,0,1,-712,-598)" stroke="silver">
      <rect x="1131.96" width="59" height="50" y="763.3161" clip-path="url(#clipPath2)" stroke="none"/>
    </g>
    <g text-rendering="geometricPrecision" stroke-miterlimit="1.45" shape-rendering="geometricPrecision" transform="matrix(1,0,0,1,-712,-598)" stroke-linecap="butt">
      <rect fill="none" x="1131.96" width="59" height="50" y="763.3161" clip-path="url(#clipPath2)"/>
    </g>
    <g fill="silver" text-rendering="geometricPrecision" shape-rendering="geometricPrecision" transform="matrix(1,0,0,1,-712,-598)" stroke="silver">
      <rect x="1190.96" width="59" height="50" y="763.3161" clip-path="url(#clipPath2)" stroke="none"/>
    </g>
    <g text-rendering="geometricPrecision" stroke-miterlimit="1.45" shape-rendering="geometricPrecision" transform="matrix(1,0,0,1,-712,-598)" stroke-linecap="butt">
      <rect fill="none" x="1190.96" width="59" height="50" y="763.3161" clip-path="url(#clipPath2)"/>
    </g>
    <g fill="silver" text-rendering="geometricPrecision" shape-rendering="geometricPrecision" transform="matrix(1,0,0,1,-712,-598)" stroke="silver">
      <rect x="1249.96" width="59" height="50" y="763.3161" clip-path="url(#clipPath2)" stroke="none"/>
    </g>
    <g text-rendering="geometricPrecision" stroke-miterlimit="1.45" shape-rendering="geometricPrecision" transform="matrix(1,0,0,1,-712,-598)" stroke-linecap="butt">
      <rect fill="none" x="1249.96" width="59" height="50" y="763.3161" clip-path="url(#clipPath2)"/>
    </g>
    <g fill="silver" text-rendering="geometricPrecision" shape-rendering="geometricPrecision" transform="matrix(1,0,0,1,-712,-598)" stroke="silver">
      <rect x="1308.96" width="59" height="50" y="763.3161" clip-path="url(#clipPath2)" stroke="none"/>
    </g>
    <g text-rendering="geometricPrecision" stroke-miterlimit="1.45" shape-rendering="geometricPrecision" transform="matrix(1,0,0,1,-712,-598)" stroke-linecap="butt">
      <rect fill="none" x="1308.96" width="59" height="50" y="763.3161" clip-path="url(#clipPath2)"/>
      <text x="1208.79" font-size="30px" y="745.1861" clip-path="url(#clipPath2)" font-family="sans-serif" stroke="none" xml:space="preserve">arrays</text>
    </g>
    <g fill="silver" text-rendering="geometricPrecision" shape-rendering="geometricPrecision" transform="matrix(1,0,0,1,-712,-598)" stroke="silver">
      <rect x="1470.736" width="532" height="344" y="745.2081" clip-path="url(#clipPath2)" stroke="none"/>
    </g>
    <g text-rendering="geometricPrecision" stroke-miterlimit="1.45" shape-rendering="geometricPrecision" transform="matrix(1,0,0,1,-712,-598)" stroke-linecap="butt">
      <rect fill="none" x="1470.736" width="532" height="344" y="745.2081" clip-path="url(#clipPath2)"/>
      <text x="1485.5913" font-size="30px" y="774.0782" clip-path="url(#clipPath2)" font-family="sans-serif" stroke="none" xml:space="preserve">(</text>
      <text x="1485.5913" font-size="30px" y="804.0782" clip-path="url(#clipPath2)" font-family="sans-serif" stroke="none" xml:space="preserve">  @S %1 = *(this.size)</text>
      <text x="1485.5913" font-size="30px" y="834.0782" clip-path="url(#clipPath2)" font-family="sans-serif" stroke="none" xml:space="preserve">  @S %3 = %1 + 1</text>
      <text x="1485.5913" font-size="30px" y="864.0781" clip-path="url(#clipPath2)" font-family="sans-serif" stroke="none" xml:space="preserve">  @S this.ensureCapacityInternal(%3)</text>
      <text x="1485.5913" font-size="30px" y="894.0781" clip-path="url(#clipPath2)" font-family="sans-serif" stroke="none" xml:space="preserve">  @S %9 = *(this.elementData)</text>
      <text x="1485.5913" font-size="30px" y="924.0781" clip-path="url(#clipPath2)" font-family="sans-serif" stroke="none" xml:space="preserve">  @S %10 = *(this.size)</text>
      <text x="1485.5913" font-size="30px" y="954.0781" clip-path="url(#clipPath2)" font-family="sans-serif" stroke="none" xml:space="preserve">  @S %8 = %10 + 1</text>
      <text x="1485.5913" font-size="30px" y="984.0781" clip-path="url(#clipPath2)" font-family="sans-serif" stroke="none" xml:space="preserve">  @S *(this.size) = %8</text>
      <text x="1485.5913" font-size="30px" y="1014.078" clip-path="url(#clipPath2)" font-family="sans-serif" stroke="none" xml:space="preserve">  @S *(%9[%10]) = arg$0</text>
      <text x="1485.5913" font-size="30px" y="1044.078" clip-path="url(#clipPath2)" font-family="sans-serif" stroke="none" xml:space="preserve">  @S &lt;retval&gt; = 1</text>
      <text x="1485.5913" font-size="30px" y="1074.078" clip-path="url(#clipPath2)" font-family="sans-serif" stroke="none" xml:space="preserve">)</text>
      <text x="1621.1161" font-size="40px" y="729.3681" clip-path="url(#clipPath2)" font-family="sans-serif" stroke="none" xml:space="preserve">method code</text>
      <text x="1638.8961" font-size="80px" y="1377.6082" clip-path="url(#clipPath2)" font-family="sans-serif" stroke="none" xml:space="preserve">unsat</text>
      <path fill="none" d="M801.872 913.2521 L995.936 913.2521 L996.19 912.6627" clip-path="url(#clipPath2)"/>
      <path d="M999.3566 905.3161 L990.0151 914.3569 L995.7942 913.5811 L999.1984 918.3151 Z" clip-path="url(#clipPath2)" stroke="none"/>
      <path fill="none" d="M801.872 913.2521 L821.936 913.2521 L821.936 797.2721 L1007.548 797.2721 L1007.548 786.3161" clip-path="url(#clipPath2)"/>
      <path d="M1007.548 778.3161 L1002.548 790.3161 L1007.548 787.3161 L1012.548 790.3161 Z" clip-path="url(#clipPath2)" stroke="none"/>
      <path fill="none" d="M1367.96 918.1747 L1462.7361 917.9263" clip-path="url(#clipPath2)"/>
      <path d="M1470.7361 917.9053 L1458.723 912.9368 L1461.7361 917.929 L1458.7493 922.9368 Z" clip-path="url(#clipPath2)" stroke="none"/>
      <path fill="none" d="M2002.736 917.2081 L2097.512 917.2081" clip-path="url(#clipPath2)"/>
      <path d="M2105.512 917.2081 L2093.512 912.2081 L2096.512 917.2081 L2093.512 922.2081 Z" clip-path="url(#clipPath2)" stroke="none"/>
    </g>
  </g>
</svg>
