<?xml version="1.0" encoding="UTF-8"?><svg xmlns="http://www.w3.org/2000/svg" xmlns:xlink="http://www.w3.org/1999/xlink" fill-opacity="1" color-rendering="auto" color-interpolation="auto" text-rendering="auto" stroke="black" stroke-linecap="square" width="1287" stroke-miterlimit="10" shape-rendering="auto" stroke-opacity="1" fill="black" stroke-dasharray="none" font-weight="normal" stroke-width="1" height="351" font-family="'Dialog'" font-style="normal" stroke-linejoin="miter" font-size="12px" stroke-dashoffset="0" image-rendering="auto">
  <!--Generated by ySVG 2.5-->
  <defs id="genericDefs"/>
  <g>
    <defs id="defs1">
      <clipPath clipPathUnits="userSpaceOnUse" id="clipPath1">
        <path d="M0 0 L1287 0 L1287 351 L0 351 L0 0 Z"/>
      </clipPath>
      <clipPath clipPathUnits="userSpaceOnUse" id="clipPath2">
        <path d="M106 186 L1393 186 L1393 537 L106 537 L106 186 Z"/>
      </clipPath>
    </defs>
    <g fill="silver" text-rendering="geometricPrecision" shape-rendering="geometricPrecision" transform="matrix(1,0,0,1,-106,-186)" stroke="silver">
      <rect x="315" width="241" height="70" y="201" clip-path="url(#clipPath2)" stroke="none"/>
    </g>
    <g text-rendering="geometricPrecision" stroke-miterlimit="1.45" shape-rendering="geometricPrecision" transform="matrix(1,0,0,1,-106,-186)" stroke-linecap="butt">
      <rect fill="none" x="315" width="241" height="70" y="201" clip-path="url(#clipPath2)"/>
      <text x="340.9504" font-size="25px" y="230.104" clip-path="url(#clipPath2)" font-family="sans-serif" stroke="none" xml:space="preserve">initial memory </text>
      <text x="366.0359" font-size="25px" y="259.2056" clip-path="url(#clipPath2)" font-family="sans-serif" stroke="none" xml:space="preserve">constraints</text>
    </g>
    <g fill="silver" text-rendering="geometricPrecision" shape-rendering="geometricPrecision" transform="matrix(1,0,0,1,-106,-186)" stroke="silver">
      <rect x="315" width="241" height="70" y="326.5" clip-path="url(#clipPath2)" stroke="none"/>
    </g>
    <g text-rendering="geometricPrecision" stroke-miterlimit="1.45" shape-rendering="geometricPrecision" transform="matrix(1,0,0,1,-106,-186)" stroke-linecap="butt">
      <rect fill="none" x="315" width="241" height="70" y="326.5" clip-path="url(#clipPath2)"/>
      <text x="356.7524" font-size="25px" y="370.1548" clip-path="url(#clipPath2)" font-family="sans-serif" stroke="none" xml:space="preserve">SMT formula</text>
    </g>
    <g fill="silver" text-rendering="geometricPrecision" shape-rendering="geometricPrecision" transform="matrix(1,0,0,1,-106,-186)" stroke="silver">
      <rect x="315" width="241" height="70" y="452" clip-path="url(#clipPath2)" stroke="none"/>
    </g>
    <g text-rendering="geometricPrecision" stroke-miterlimit="1.45" shape-rendering="geometricPrecision" transform="matrix(1,0,0,1,-106,-186)" stroke-linecap="butt">
      <rect fill="none" x="315" width="241" height="70" y="452" clip-path="url(#clipPath2)"/>
      <text x="352.3701" font-size="25px" y="481.104" clip-path="url(#clipPath2)" font-family="sans-serif" stroke="none" xml:space="preserve">final memory</text>
      <text x="366.0359" font-size="25px" y="510.2056" clip-path="url(#clipPath2)" font-family="sans-serif" stroke="none" xml:space="preserve">constraints</text>
      <text x="159.7554" font-size="25px" y="495.6548" clip-path="url(#clipPath2)" font-family="sans-serif" stroke="none" xml:space="preserve">descriptor</text>
      <text x="187.7273" font-size="25px" y="370.1548" clip-path="url(#clipPath2)" font-family="sans-serif" stroke="none" xml:space="preserve">method</text>
      <text x="123.8303" font-size="25px" y="244.6548" clip-path="url(#clipPath2)" font-family="sans-serif" stroke="none" xml:space="preserve">method type</text>
    </g>
    <g fill="silver" text-rendering="geometricPrecision" shape-rendering="geometricPrecision" transform="matrix(1,0,0,1,-106,-186)" stroke="silver">
      <circle r="25" clip-path="url(#clipPath2)" cx="618" cy="361.5" stroke="none"/>
    </g>
    <g text-rendering="geometricPrecision" stroke-miterlimit="1.45" shape-rendering="geometricPrecision" transform="matrix(1,0,0,1,-106,-186)" stroke-linecap="butt">
      <circle fill="none" r="25" clip-path="url(#clipPath2)" cx="618" cy="361.5"/>
      <text x="607.7461" font-size="25px" y="370.1548" clip-path="url(#clipPath2)" font-family="sans-serif" stroke="none" xml:space="preserve">⋀</text>
    </g>
    <g fill="silver" text-rendering="geometricPrecision" shape-rendering="geometricPrecision" transform="matrix(1,0,0,1,-106,-186)" stroke="silver">
      <rect x="680" width="241" height="70" y="326.5" clip-path="url(#clipPath2)" stroke="none"/>
    </g>
    <g text-rendering="geometricPrecision" stroke-miterlimit="1.45" shape-rendering="geometricPrecision" transform="matrix(1,0,0,1,-106,-186)" stroke-linecap="butt">
      <rect fill="none" x="680" width="241" height="70" y="326.5" clip-path="url(#clipPath2)"/>
      <text x="732.3115" font-size="25px" y="370.1548" clip-path="url(#clipPath2)" font-family="sans-serif" stroke="none" xml:space="preserve">SMT solver</text>
      <rect fill="none" x="958" width="232" height="175.5" y="272" clip-path="url(#clipPath2)"/>
      <text x="1035.0779" font-size="25px" y="301.2056" clip-path="url(#clipPath2)" font-family="sans-serif" stroke="none" xml:space="preserve">model</text>
    </g>
    <g fill="silver" text-rendering="geometricPrecision" shape-rendering="geometricPrecision" transform="matrix(1,0,0,1,-106,-186)" stroke="silver">
      <rect x="974" width="200" height="70" y="326.5" clip-path="url(#clipPath2)" stroke="none"/>
    </g>
    <g text-rendering="geometricPrecision" stroke-miterlimit="1.45" shape-rendering="geometricPrecision" transform="matrix(1,0,0,1,-106,-186)" stroke-linecap="butt">
      <rect fill="none" x="974" width="200" height="70" y="326.5" clip-path="url(#clipPath2)"/>
      <text x="983.4238" font-size="25px" y="370.1548" clip-path="url(#clipPath2)" font-family="sans-serif" stroke="none" xml:space="preserve">initial memory</text>
      <text x="1255.3159" font-size="25px" y="317.604" clip-path="url(#clipPath2)" font-family="sans-serif" stroke="none" xml:space="preserve">reduced</text>
      <text x="1243.2554" font-size="25px" y="346.7056" clip-path="url(#clipPath2)" font-family="sans-serif" stroke="none" xml:space="preserve">descriptor</text>
      <text x="1238.6411" font-size="25px" y="408.1548" clip-path="url(#clipPath2)" font-family="sans-serif" stroke="none" xml:space="preserve">arguments</text>
      <path fill="none" d="M285 487 L307 487" clip-path="url(#clipPath2)"/>
      <path d="M315 487 L303 482 L306 487 L303 492 Z" clip-path="url(#clipPath2)" stroke="none"/>
      <path fill="none" d="M285 361.5 L307 361.5" clip-path="url(#clipPath2)"/>
      <path d="M315 361.5 L303 356.5 L306 361.5 L303 366.5 Z" clip-path="url(#clipPath2)" stroke="none"/>
      <path fill="none" d="M285 236 L307 236" clip-path="url(#clipPath2)"/>
      <path d="M315 236 L303 231 L306 236 L303 241 Z" clip-path="url(#clipPath2)" stroke="none"/>
      <path fill="none" d="M486.3964 271 L590.8088 342.8014" clip-path="url(#clipPath2)"/>
      <path d="M597.4006 347.3344 L590.346 336.415 L589.9848 342.2348 L584.6797 344.6548 Z" clip-path="url(#clipPath2)" stroke="none"/>
      <path fill="none" d="M556 361.5 L585 361.5" clip-path="url(#clipPath2)"/>
      <path d="M593 361.5 L581 356.5 L584 361.5 L581 366.5 Z" clip-path="url(#clipPath2)" stroke="none"/>
      <path fill="none" d="M486.3964 452 L590.8088 380.1986" clip-path="url(#clipPath2)"/>
      <path d="M597.4006 375.6656 L584.6797 378.3452 L589.9848 380.7652 L590.346 386.585 Z" clip-path="url(#clipPath2)" stroke="none"/>
      <path fill="none" d="M643 361.5 L672 361.5" clip-path="url(#clipPath2)"/>
      <path d="M680 361.5 L668 356.5 L671 361.5 L668 366.5 Z" clip-path="url(#clipPath2)" stroke="none"/>
      <path fill="none" d="M921 360.729 L950.0002 360.5434" clip-path="url(#clipPath2)"/>
      <path d="M958 360.4922 L945.9683 355.5691 L949.0002 360.5498 L946.0322 365.5689 Z" clip-path="url(#clipPath2)" stroke="none"/>
      <path fill="none" d="M1174 345.1559 L1227.1047 336.4764" clip-path="url(#clipPath2)"/>
      <path d="M1235 335.186 L1222.3506 332.1871 L1226.1178 336.6377 L1223.9636 342.0562 Z" clip-path="url(#clipPath2)" stroke="none"/>
      <path fill="none" d="M1174 377.8441 L1229.6047 386.9322" clip-path="url(#clipPath2)"/>
      <path d="M1237.5 388.2226 L1226.4636 381.3525 L1228.6178 386.7709 L1224.8506 391.2215 Z" clip-path="url(#clipPath2)" stroke="none"/>
    </g>
  </g>
</svg>
